<?xml version="1.0" encoding="UTF-8" standalone="no"?>
<!-- Created with Inkscape (http://www.inkscape.org/) -->

<svg
   width="210mm"
   height="297mm"
   viewBox="0 0 210 297"
   version="1.1"
   id="svg1"
   xml:space="preserve"
   inkscape:version="1.4.2 (ebf0e940d0, 2025-05-08)"
   sodipodi:docname="greeting.svg"
   inkscape:export-filename="greeting.pdf"
   inkscape:export-xdpi="96"
   inkscape:export-ydpi="96"
   xmlns:inkscape="http://www.inkscape.org/namespaces/inkscape"
   xmlns:sodipodi="http://sodipodi.sourceforge.net/DTD/sodipodi-0.dtd"
   xmlns="http://www.w3.org/2000/svg"
   xmlns:svg="http://www.w3.org/2000/svg"><sodipodi:namedview
     id="namedview1"
     pagecolor="#ffffff"
     bordercolor="#000000"
     borderopacity="0.25"
     inkscape:showpageshadow="2"
     inkscape:pageopacity="0.0"
     inkscape:pagecheckerboard="0"
     inkscape:deskcolor="#d1d1d1"
     inkscape:document-units="mm"
     showgrid="false"
     inkscape:zoom="0.85670232"
     inkscape:cx="438.89224"
     inkscape:cy="840.43195"
     inkscape:window-width="1504"
     inkscape:window-height="931"
     inkscape:window-x="0"
     inkscape:window-y="0"
     inkscape:window-maximized="1"
     inkscape:current-layer="layer1"><inkscape:grid
       id="grid1"
       units="mm"
       originx="0"
       originy="0"
       spacingx="0.99999998"
       spacingy="1"
       empcolor="#0099e5"
       empopacity="0.30196078"
       color="#0099e5"
       opacity="0.14901961"
       empspacing="5"
       enabled="true"
       visible="false" /></sodipodi:namedview><defs
     id="defs1"><rect
       x="0"
       y="524.1027"
       width="793.70079"
       height="598.41699"
       id="rect2" /><rect
       x="0"
       y="550.94983"
       width="793.70079"
       height="571.56985"
       id="rect1" /></defs><g
     inkscape:label="Layer 1"
     inkscape:groupmode="layer"
     id="layer1"><path
       style="color:#000000;font-style:normal;font-variant:normal;font-weight:normal;font-stretch:normal;font-size:medium;line-height:normal;font-family:Sans;-inkscape-font-specification:Sans;text-indent:0;text-align:start;text-decoration:none;text-decoration-line:none;letter-spacing:normal;word-spacing:normal;text-transform:none;writing-mode:lr-tb;direction:ltr;baseline-shift:baseline;text-anchor:start;display:inline;overflow:visible;visibility:visible;fill:#006599;fill-opacity:1;stroke:none;stroke-width:2.20772;marker:none;enable-background:accumulate"
       d="M 91.539539,2.5429683e-4 A 2.6119024,2.5016882 0 0 0 90.555525,0.17246892 l -0.140541,0.0497136 a 2.6119024,2.5016882 0 0 0 -0.766722,0.46632196 l -0.140541,0.0992174 A 2.6119024,2.5016882 0 0 0 89.130674,1.1970096 L 88.996427,1.3692242 A 2.6119024,2.5016882 0 0 0 88.8175,1.6444739 l -0.140541,0.2308012 a 2.6119024,2.5016882 0 0 0 -0.101735,0.2047277 l -0.121452,0.2878354 a 2.6119024,2.5016882 0 0 0 -0.0644,0.1476725 l -0.134247,0.3448068 a 2.6119024,2.5016882 0 0 0 -0.0323,0.1239693 l -0.134247,0.4030997 a 2.6119024,2.5016882 0 0 0 -0.0323,0.074256 l -0.121452,0.4663219 a 2.6119024,2.5016882 0 0 0 -0.02601,0.06209 L 87.787358,4.507264 a 2.6119024,2.5016882 0 0 0 -0.01888,0.049714 L 87.63423,5.1262512 a 2.6119024,2.5016882 0 0 0 -0.01259,0.037128 l -0.121452,0.6263284 a 2.6119024,2.5016882 0 0 0 -0.01888,0.023493 l -0.115369,0.6709658 a 2.6119024,2.5016882 0 0 0 -0.01888,0.037128 l -0.121452,0.7156032 a 2.6119024,2.5016882 0 0 0 -0.01259,0.023493 L 87.091578,8.026861 a 2.6119024,2.5016882 0 0 0 -0.01259,0.012586 L 86.95754,8.8505755 a 2.6119024,2.5016882 0 0 0 -0.01888,0.023284 l -0.121452,0.8495782 a 2.6119024,2.5016882 0 0 0 0,0.037128 L 86.68296,10.654781 a 2.6119024,2.5016882 0 0 0 0,0.02349 l -0.134248,0.938874 a 2.6119024,2.5016882 0 0 0 0,0.01259 l -0.14054,0.98479 a 2.6119024,2.5016882 0 0 0 0,0.02349 l -0.134248,1.009542 a 2.6119024,2.5016882 0 0 0 0,0.01259 l -0.121452,1.074066 -0.134248,1.09886 a 2.6119024,2.5016882 0 0 0 0,0.02349 l -0.134247,1.143496 -0.140541,1.16957 a 2.6119024,2.5016882 0 0 0 0,0.01259 l -0.121452,1.20181 a 2.6119024,2.5016882 0 0 0 0,0.02349 l -0.134248,1.246049 -0.134248,1.271514 a 2.6119024,2.5016882 0 0 0 0,0.01259 l -0.121452,1.303629 -0.134247,1.335387 a 2.6119024,2.5016882 0 0 0 0,0.01259 l -0.140541,1.36104 -0.134248,1.393051 -0.121452,1.418621 a 2.6119024,2.5016882 0 0 0 0,0.01258 l -0.134248,1.431249 -0.134247,1.476116 -0.121453,1.495142 -0.14054,1.501686 -0.134248,1.539884 -0.121452,1.546345 -0.134248,1.578354 -0.134247,1.578333 -0.140541,1.610218 -0.0644,0.855767 h 5.239688 l 0.03839,-0.466322 0.140541,-1.591129 v -0.02349 l 0.121452,-1.578207 0.134248,-1.559098 0.134247,-1.552805 0.121453,-1.520817 0.134247,-1.501561 0.140541,-1.495225 0.121452,-1.463258 0.134248,-1.431353 0.134247,-1.418621 0.121453,-1.392925 0.134247,-1.341826 v -0.02349 l 0.140541,-1.329031 h -0.01888 l 0.140751,-1.290729 0.134247,-1.271619 0.121452,-1.232813 0.134248,-1.200573 0.134248,-1.157152 v -0.02349 l 0.121452,-1.112494 v -0.01259 l 0.140541,-1.086462 v -0.02349 l 0.134247,-1.041804 h -0.01259 l 0.01259,-0.08684 0.05706,0.492374 h -0.01259 l 0.134248,1.124891 v 0.02349 l 0.14054,1.169549 v 0.02349 l 0.121452,1.20181 v 0.01259 l 0.134248,1.258887 0.134248,1.303461 0.121452,1.335513 v 0.01259 l 0.134248,1.361041 v 0.01259 l 0.14054,1.405825 h -0.01888 l 0.14054,1.444044 0.134248,1.482451 v 0.01259 l 0.121452,1.508 0.134248,1.533591 0.134248,1.578354 0.121452,1.590982 0.14054,1.623117 0.134248,1.64852 0.121452,1.667776 v 0.01259 l 0.134248,1.68053 v 0.01259 l 0.134248,1.71254 0.121452,1.731648 0.02601,0.281396 c 1.487737,-0.590354 3.228007,-1.039308 5.099126,-1.066598 h 0.0644 l -0.109076,-1.309964 -0.121452,-1.725293 -0.134248,-1.693304 -0.134248,-1.680571 -0.121452,-1.64852 -0.134248,-1.635787 -0.14054,-1.591108 a 2.6119024,2.5016882 0 0 0 0,-0.02349 l -0.121452,-1.559266 a 2.6119024,2.5016882 0 0 0 -0.01259,-0.02328 l -0.121452,-1.53357 a 2.6119024,2.5016882 0 0 0 0,-0.01259 l -0.134248,-1.508 a 2.6119024,2.5016882 0 0 0 0,-0.01259 l -0.134248,-1.476032 -0.121452,-1.463363 -0.14054,-1.418474 -0.134248,-1.39305 -0.121452,-1.341826 a 2.6119024,2.5016882 0 0 0 0,-0.02349 l -0.134248,-1.303524 a 2.6119024,2.5016882 0 0 0 0,-0.01259 l -0.134248,-1.27164 -0.14054,-1.232792 a 2.6119024,2.5016882 0 0 0 0,-0.01259 l -0.121452,-1.188176 a 2.6119024,2.5016882 0 0 0 0,-0.01259 l -0.134248,-1.143497 -0.134248,-1.105068 a 2.6119024,2.5016882 0 0 0 0,-0.01259 l -0.14054,-1.054222 a 2.6119024,2.5016882 0 0 0 0,-0.02349 l -0.11537,-1.009585 a 2.6119024,2.5016882 0 0 0 -0.01888,-0.01258 L 96.191537,9.9234454 a 2.6119024,2.5016882 0 0 0 0,-0.012586 l -0.134248,-0.91408 a 2.6119024,2.5016882 0 0 0 0,-0.037128 L 95.923041,8.1100946 a 2.6119024,2.5016882 0 0 0 0,-0.037128 l -0.14075,-0.7925438 a 2.6119024,2.5016882 0 0 0 0,-0.037128 L 95.648043,6.4892215 a 2.6119024,2.5016882 0 0 0 0,-0.023284 L 95.513796,5.7565227 a 2.6119024,2.5016882 0 0 0 0,-0.037128 L 95.373255,5.0682516 A 2.6119024,2.5016882 0 0 0 95.360669,5.018538 L 95.239217,4.4430769 a 2.6119024,2.5016882 0 0 0 -0.01259,-0.06209 L 95.092384,3.8575891 a 2.6119024,2.5016882 0 0 0 -0.01888,-0.074256 L 94.939257,3.3170114 a 2.6119024,2.5016882 0 0 0 -0.0323,-0.099217 L 94.785502,2.8147152 A 2.6119024,2.5016882 0 0 0 94.740823,2.7029121 L 94.606575,2.3518963 A 2.6119024,2.5016882 0 0 0 94.529592,2.1918479 L 94.40814,1.9040125 A 2.6119024,2.5016882 0 0 0 94.273892,1.6732113 L 94.133352,1.4561706 A 2.6119024,2.5016882 0 0 0 93.864961,1.0915412 L 93.730714,0.9514202 A 2.6119024,2.5016882 0 0 0 93.155609,0.4727013 L 93.015068,0.39844555 A 2.6119024,2.5016882 0 0 0 91.928732,0.02762824 L 91.794484,0.00413489 A 2.6119024,2.5016882 0 0 0 91.536309,0.00214215 Z M 119.74439,7.9428094 a 2.6119024,2.5016882 0 0 0 -0.35781,0.037128 l -0.12145,0.012586 a 2.6119024,2.5016882 0 0 0 -0.93936,0.3447858 l -0.13425,0.074256 a 2.6119024,2.5016882 0 0 0 -0.53034,0.4340815 l -0.13424,0.1277451 a 2.6119024,2.5016882 0 0 0 -0.27473,0.3448068 l -0.13425,0.192142 a 2.6119024,2.5016882 0 0 0 -0.14075,0.2430933 l -0.13425,0.2492191 a 2.6119024,2.5016882 0 0 0 -0.077,0.172214 l -0.13425,0.319971 a 2.6119024,2.5016882 0 0 0 -0.0447,0.111803 l -0.13424,0.377069 a 2.6119024,2.5016882 0 0 0 -0.0323,0.08684 l -0.12145,0.415476 a 2.6119024,2.5016882 0 0 0 -0.0323,0.07425 l -0.13425,0.472552 a 2.6119024,2.5016882 0 0 0 -0.0126,0.06209 l -0.12145,0.537033 a 2.6119024,2.5016882 0 0 0 -0.0189,0.04971 l -0.13424,0.58167 a 2.6119024,2.5016882 0 0 0 0,0.04971 l -0.13425,0.62014 a 2.6119024,2.5016882 0 0 0 -0.0189,0.03713 l -0.12145,0.677175 a 2.6119024,2.5016882 0 0 0 -0.0126,0.03713 l -0.12145,0.721812 a 2.6119024,2.5016882 0 0 0 -0.0126,0.01259 l -0.12145,0.76647 a 2.6119024,2.5016882 0 0 0 -0.0189,0.03713 l -0.12145,0.811129 a 2.6119024,2.5016882 0 0 0 0,0.02349 l -0.13425,0.855787 a 2.6119024,2.5016882 0 0 0 0,0.01259 l -0.13424,0.900424 a 2.6119024,2.5016882 0 0 0 0,0.01259 l -0.13425,0.952529 -0.14054,0.990958 a 2.6119024,2.5016882 0 0 0 0,0.01259 l -0.12145,1.029386 a 2.6119024,2.5016882 0 0 0 0,0.01259 l -0.13425,1.054222 a 2.6119024,2.5016882 0 0 0 0,0.02328 l -0.13425,1.09888 -0.14054,1.143497 -0.11537,1.16957 a 2.6119024,2.5016882 0 0 0 0,0.02349 l -0.14054,1.201811 -0.13425,1.245924 -0.13425,1.271661 -0.12145,1.303482 a 2.6119024,2.5016882 0 0 0 0,0.01259 l -0.14054,1.322717 a 2.6119024,2.5016882 0 0 0 0,0.01259 l -0.13425,1.361083 -0.12145,1.373794 a 2.6119024,2.5016882 0 0 0 0,0.01259 l -0.13425,1.405699 a 2.6119024,2.5016882 0 0 0 0,0.01259 l -0.13424,1.437835 -0.12146,1.463237 -0.14054,1.476011 a 2.6119024,2.5016882 0 0 0 0,0.01259 l -0.13424,1.488933 a 2.6119024,2.5016882 0 0 0 0,0.02349 l -0.0508,0.555638 h 5.23969 l 0.0126,-0.153755 0.13424,-1.488912 v -0.01259 l 0.14055,-1.482367 0.11536,-1.444148 0.14054,-1.437709 0.13425,-1.399365 v -0.02328 l 0.12145,-1.373837 0.13425,-1.348266 0.14054,-1.329073 0.11537,-1.290729 0.14054,-1.258845 v -0.01259 l 0.13425,-1.220416 v -0.0126 l 0.12145,-1.188155 0.13425,-1.155914 v -0.01259 l 0.12145,-1.118703 v -0.01259 l 0.13425,-1.074065 v -0.01259 l 0.14054,-1.041825 v -0.01259 l 0.12145,-1.003354 v -0.01259 l 0.0894,-0.638746 0.12145,0.824784 h -0.0189 l 0.14054,0.945062 v 0.01258 l 0.13424,0.983512 0.12146,1.015772 v 0.01259 l 0.13424,1.041804 0.14054,1.074066 h -0.0189 l 0.13424,1.111277 0.14054,1.1311 v 0.01259 l 0.12146,1.163361 0.13424,1.181947 0.13425,1.220395 0.12145,1.226625 v 0.02328 l 0.14054,1.245965 v 0.01259 l 0.13425,1.271619 0.12145,1.303525 0.13425,1.316256 0.13425,1.348288 0.12145,1.361041 0.14054,1.36104 v 0.01259 l 0.0323,0.358463 h 5.24608 l -0.0831,-0.817359 -0.13424,-1.373837 -0.12146,-1.36104 -0.13424,-1.348267 -0.13425,-1.335492 -0.12145,-1.297042 -0.14054,-1.290876 a 2.6119024,2.5016882 0 0 0 0,-0.01259 l -0.13425,-1.265159 -0.13425,-1.24026 -0.12145,-1.220416 a 2.6119024,2.5016882 0 0 0 0,-0.01259 l -0.13425,-1.188176 a 2.6119024,2.5016882 0 0 0 0,-0.01259 l -0.14075,-1.175737 -0.12145,-1.143497 a 2.6119024,2.5016882 0 0 0 -0.0126,0 l -0.12145,-1.131121 -0.13425,-1.080274 a 2.6119024,2.5016882 0 0 0 0,-0.02349 l -0.14054,-1.054201 -0.11537,-1.029428 a 2.6119024,2.5016882 0 0 0 -0.0189,-0.01259 l -0.12146,-1.003355 -0.13424,-0.964905 a 2.6119024,2.5016882 0 0 0 0,-0.02349 l -0.13425,-0.926456 a 2.6119024,2.5016882 0 0 0 0,-0.01259 l -0.14054,-0.900424 a 2.6119024,2.5016882 0 0 0 0,-0.01259 l -0.12146,-0.855787 a 2.6119024,2.5016882 0 0 0 -0.0126,-0.01259 l -0.12145,-0.824742 a 2.6119024,2.5016882 0 0 0 0,-0.01259 l -0.13425,-0.786335 a 2.6119024,2.5016882 0 0 0 0,-0.01258 l -0.13425,-0.754074 a 2.6119024,2.5016882 0 0 0 0,-0.02349 l -0.14054,-0.696998 a 2.6119024,2.5016882 0 0 0 0,-0.03713 l -0.13425,-0.664778 a 2.6119024,2.5016882 0 0 0 0,-0.02349 l -0.13424,-0.626328 a 2.6119024,2.5016882 0 0 0 -0.0189,-0.02349 l -0.12146,-0.581649 a 2.6119024,2.5016882 0 0 0 -0.0126,-0.04971 l -0.13425,-0.537033 a 2.6119024,2.5016882 0 0 0 0,-0.06209 l -0.14054,-0.472531 a 2.6119024,2.5016882 0 0 0 -0.0126,-0.06209 l -0.13424,-0.453925 a 2.6119024,2.5016882 0 0 0 -0.0323,-0.07426 l -0.12145,-0.389444 a 2.6119024,2.5016882 0 0 0 -0.0323,-0.09922 L 123.086,10.592828 a 2.6119024,2.5016882 0 0 0 -0.0447,-0.123969 l -0.13425,-0.300128 a 2.6119024,2.5016882 0 0 0 -0.077,-0.160048 L 122.69614,9.7594954 A 2.6119024,2.5016882 0 0 0 122.5556,9.5424336 L 122.43415,9.3442085 A 2.6119024,2.5016882 0 0 0 122.19777,9.050248 l -0.14054,-0.140121 a 2.6119024,2.5016882 0 0 0 -0.45367,-0.3956112 l -0.12146,-0.086842 a 2.6119024,2.5016882 0 0 0 -0.83072,-0.3770472 l -0.13424,-0.037128 a 2.6119024,2.5016882 0 0 0 -0.77319,-0.074256 z M 62.567901,28.946322 a 2.6119024,2.5016882 0 0 0 -0.332263,0.01259 l -0.134248,0.01259 a 2.6119024,2.5016882 0 0 0 -0.530341,0.09922 l -0.134248,0.04971 a 2.6119024,2.5016882 0 0 0 -0.421685,0.172215 l -0.14054,0.07426 a 2.6119024,2.5016882 0 0 0 -0.332263,0.198225 l -0.134248,0.08684 A 2.6119024,2.5016882 0 0 0 60.165224,29.8567 l -0.121453,0.111803 a 2.6119024,2.5016882 0 0 0 -0.178927,0.160048 L 59.743392,30.2886 a 2.6119024,2.5016882 0 0 0 -0.134248,0.140121 l -0.14054,0.178717 a 2.6119024,2.5016882 0 0 0 -0.08936,0.127745 l -0.121452,0.204728 a 2.6119024,2.5016882 0 0 0 -0.07698,0.09922 l -0.134247,0.210895 a 2.6119024,2.5016882 0 0 0 -0.04468,0.09922 l -0.134247,0.236927 a 2.6119024,2.5016882 0 0 0 -0.04468,0.08684 l -0.121452,0.261804 a 2.6119024,2.5016882 0 0 0 -0.04468,0.07426 l -0.121452,0.293939 a 2.6119024,2.5016882 0 0 0 -0.0323,0.06209 l -0.134247,0.319971 a 2.6119024,2.5016882 0 0 0 -0.01888,0.03713 l -0.134248,0.332389 a 2.6119024,2.5016882 0 0 0 -0.01258,0.04971 l -0.140541,0.350974 a 2.6119024,2.5016882 0 0 0 -0.01259,0.03713 l -0.121452,0.377026 a 2.6119024,2.5016882 0 0 0 -0.01259,0.04971 l -0.14054,0.389444 a 2.6119024,2.5016882 0 0 0 0,0.03713 l -0.134248,0.403037 a 2.6119024,2.5016882 0 0 0 -0.01259,0.03713 l -0.121452,0.434081 a 2.6119024,2.5016882 0 0 0 -0.01888,0.02349 l -0.134248,0.453925 a 2.6119024,2.5016882 0 0 0 0,0.01259 l -0.134248,0.478761 a 2.6119024,2.5016882 0 0 0 0,0.01259 l -0.134247,0.47874 a 2.6119024,2.5016882 0 0 0 0,0.02328 l -0.140541,0.492375 a 2.6119024,2.5016882 0 0 0 0,0.03713 l -0.134248,0.504793 a 2.6119024,2.5016882 0 0 0 0,0.01259 l -0.134247,0.537033 a 2.6119024,2.5016882 0 0 0 0,0.02328 l -0.140541,0.549429 a 2.6119024,2.5016882 0 0 0 0,0.01259 l -0.134248,0.54943 a 2.6119024,2.5016882 0 0 0 0,0.01259 l -0.134247,0.58167 a 2.6119024,2.5016882 0 0 0 0,0.01259 l -0.121453,0.594088 a 2.6119024,2.5016882 0 0 0 -0.01259,0 l -0.121453,0.606485 a 2.6119024,2.5016882 0 0 0 0,0.02328 l -0.14054,0.607743 a 2.6119024,2.5016882 0 0 0 0,0.01259 l -0.134248,0.62012 a 2.6119024,2.5016882 0 0 0 0,0.02328 l -0.134247,0.632538 -0.04468,0.223186 h 5.322754 l 0.115369,-0.51098 h -0.01259 l 0.134248,-0.594088 v -0.01259 l 0.14054,-0.58167 v -0.01259 L 61.3739,41.098409 v -0.02349 l 0.140541,-0.561827 h -0.01888 l 0.140541,-0.537033 v -0.01258 L 61.77035,39.44008 h -0.01259 l 0.134247,-0.504771 v -0.01259 l 0.121453,-0.47874 v -0.03713 l 0.121452,-0.447717 0.01259,-0.02349 0.121452,-0.434081 v -0.03713 l 0.07698,-0.243072 0.08936,0.415475 v 0.02349 l 0.121452,0.587859 v 0.02349 l 0.134248,0.62014 v 0.01259 l 0.121452,0.651143 v 0.03713 l 0.134248,0.677175 v 0.02349 l 0.121452,0.709395 v 0.01259 l 0.140541,0.754074 v 0.01259 l 0.121452,0.780105 0.134248,0.81115 v 0.0063 h 5.271634 L 68.634302,42.65146 a 2.6119024,2.5016882 0 0 0 -0.01259,-0.01259 l -0.121453,-0.824742 a 2.6119024,2.5016882 0 0 0 0,-0.02349 L 68.366017,40.98574 68.225476,40.199384 a 2.6119024,2.5016882 0 0 0 0,-0.01259 l -0.134247,-0.741676 a 2.6119024,2.5016882 0 0 0 0,-0.01259 l -0.134248,-0.721812 a 2.6119024,2.5016882 0 0 0 0,-0.02349 L 67.81644,37.997659 a 2.6119024,2.5016882 0 0 0 0,-0.02349 l -0.121452,-0.664777 a 2.6119024,2.5016882 0 0 0 -0.01259,-0.01259 L 67.56095,36.658077 a 2.6119024,2.5016882 0 0 0 -0.01259,-0.02349 L 67.426908,36.04052 a 2.6119024,2.5016882 0 0 0 -0.01259,-0.03713 l -0.14054,-0.561847 a 2.6119024,2.5016882 0 0 0 0,-0.03713 L 67.13953,34.867401 a 2.6119024,2.5016882 0 0 0 0,-0.02349 l -0.13424,-0.504796 a 2.6119024,2.5016882 0 0 0 -0.01888,-0.04971 L 66.86496,33.82308 a 2.6119024,2.5016882 0 0 0 -0.01259,-0.06209 l -0.134248,-0.415496 a 2.6119024,2.5016882 0 0 0 -0.01888,-0.06209 L 66.565,32.89396 A 2.6119024,2.5016882 0 0 0 66.55241,32.8197 l -0.14054,-0.344786 a 2.6119024,2.5016882 0 0 0 -0.02601,-0.08684 l -0.14054,-0.319992 a 2.6119024,2.5016882 0 0 0 -0.02601,-0.08684 l -0.14054,-0.306336 a 2.6119024,2.5016882 0 0 0 -0.04468,-0.08684 l -0.134247,-0.255364 a 2.6119024,2.5016882 0 0 0 -0.0644,-0.134038 L 65.7012,30.981622 A 2.6119024,2.5016882 0 0 0 65.61184,30.841501 L 65.490388,30.636774 A 2.6119024,2.5016882 0 0 0 65.35614,30.464559 l -0.121452,-0.160048 a 2.6119024,2.5016882 0 0 0 -0.18522,-0.191094 L 64.9341,29.985672 a 2.6119024,2.5016882 0 0 0 -0.242841,-0.217061 l -0.140541,-0.09922 A 2.6119024,2.5016882 0 0 0 64.205681,29.44006 l -0.121453,-0.07425 a 2.6119024,2.5016882 0 0 0 -0.453694,-0.198226 l -0.134248,-0.04971 a 2.6119024,2.5016882 0 0 0 -0.543094,-0.134038 l -0.121453,-0.01259 a 2.6119024,2.5016882 0 0 0 -0.26195,-0.01259 z m 85.630559,11.322871 a 2.6119024,2.5016882 0 0 0 -0.53034,0.08684 l -0.13424,0.02349 a 2.6119024,2.5016882 0 0 0 -0.4537,0.160048 l -0.13425,0.06209 a 2.6119024,2.5016882 0 0 0 -0.38334,0.204727 l -0.12166,0.08684 a 2.6119024,2.5016882 0 0 0 -0.2811,0.21704 l -0.12166,0.12397 a 2.6119024,2.5016882 0 0 0 -0.21734,0.198225 l -0.11516,0.147672 a 2.6119024,2.5016882 0 0 0 -0.15333,0.172215 l -0.13425,0.172215 a 2.6119024,2.5016882 0 0 0 -0.10908,0.146204 l -0.13424,0.204728 a 2.6119024,2.5016882 0 0 0 -0.077,0.127745 l -0.12166,0.229332 a 2.6119024,2.5016882 0 0 0 -0.0646,0.12397 l -0.13424,0.255364 a 2.6119024,2.5016882 0 0 0 -0.0447,0.09922 l -0.13425,0.287835 a 2.6119024,2.5016882 0 0 0 -0.0321,0.08684 l -0.13425,0.319992 a 2.6119024,2.5016882 0 0 0 -0.0168,0.07426 l -0.13425,0.36465 a 2.6119024,2.5016882 0 0 0 -0.0126,0.06209 l -0.0168,0.04971 c 1.40398,-0.57672 2.96963,-1.021961 4.46651,-1.021961 h 3.57835 l -0.0321,-0.06209 a 2.6119024,2.5016882 0 0 0 -0.0264,-0.07426 l -0.14075,-0.255365 a 2.6119024,2.5016882 0 0 0 -0.0447,-0.07425 l -0.13425,-0.229333 a 2.6119024,2.5016882 0 0 0 -0.0447,-0.08684 l -0.13425,-0.204727 a 2.6119024,2.5016882 0 0 0 -0.077,-0.111804 l -0.12166,-0.191093 a 2.6119024,2.5016882 0 0 0 -0.0892,-0.111803 l -0.14033,-0.160048 a 2.6119024,2.5016882 0 0 0 -0.12166,-0.146204 L 151.0553,41.48661 a 2.6119024,2.5016882 0 0 0 -0.15334,-0.160049 l -0.13425,-0.111803 a 2.6119024,2.5016882 0 0 0 -0.2235,-0.192142 l -0.12166,-0.08684 a 2.6119024,2.5016882 0 0 0 -0.30669,-0.192142 l -0.13425,-0.07426 a 2.6119024,2.5016882 0 0 0 -0.37703,-0.160049 l -0.13424,-0.06209 a 2.6119024,2.5016882 0 0 0 -0.48569,-0.111803 l -0.12166,-0.01259 a 2.6119024,2.5016882 0 0 0 -0.54309,-0.03713 z M 32.84223,55.97546 32.77154,55.99895 a 2.6119024,2.5016882 0 0 0 -0.134248,0.04971 l -0.134248,0.04971 a 2.6119024,2.5016882 0 0 0 -0.121452,0.03713 l -0.14054,0.06209 a 2.6119024,2.5016882 0 0 0 -0.121453,0.04971 l -0.115369,0.06209 a 2.6119024,2.5016882 0 0 0 -0.121452,0.06209 l -0.121452,0.07426 a 2.6119024,2.5016882 0 0 0 -0.109076,0.03713 l -0.121453,0.07426 a 2.6119024,2.5016882 0 0 0 -0.08936,0.06209 l -0.134248,0.07426 a 2.6119024,2.5016882 0 0 0 -0.07698,0.06209 l -0.134247,0.08684 a 2.6119024,2.5016882 0 0 0 -0.07698,0.04971 l -0.140541,0.09922 a 2.6119024,2.5016882 0 0 0 -0.05705,0.03713 l -0.121452,0.09922 a 2.6119024,2.5016882 0 0 0 -0.05705,0.04971 l -0.140541,0.09922 a 2.6119024,2.5016882 0 0 0 -0.05705,0.06209 l -0.121452,0.09922 a 2.6119024,2.5016882 0 0 0 -0.0644,0.04971 l -0.121453,0.111804 a 2.6119024,2.5016882 0 0 0 -0.04468,0.04971 l -0.134248,0.111803 a 2.6119024,2.5016882 0 0 0 -0.0323,0.03713 L 29.7925,57.93212 a 2.6119024,2.5016882 0 0 0 -0.04468,0.04971 l -0.121452,0.127745 a 2.6119024,2.5016882 0 0 0 -0.0323,0.03713 l -0.134248,0.140121 a 2.6119024,2.5016882 0 0 0 -0.0323,0.03713 l -0.134247,0.140121 a 2.6119024,2.5016882 0 0 0 -0.01259,0.03713 l -0.14054,0.147673 a 2.6119024,2.5016882 0 0 0 -0.02601,0.03713 l -0.140541,0.146204 a 2.6119024,2.5016882 0 0 0 -0.01259,0.03713 l -0.134248,0.160048 a 2.6119024,2.5016882 0 0 0 -0.01888,0.02349 l -0.134247,0.160048 a 2.6119024,2.5016882 0 0 0 -0.01259,0.01259 l -0.140541,0.172214 a 2.6119024,2.5016882 0 0 0 -0.01259,0.03713 l -0.134248,0.160049 a 2.6119024,2.5016882 0 0 0 -0.01888,0.02349 l -0.121452,0.178717 a 2.6119024,2.5016882 0 0 0 -0.01259,0.01259 l -0.134248,0.172215 a 2.6119024,2.5016882 0 0 0 -0.01888,0.01259 l -0.134247,0.191094 a 2.6119024,2.5016882 0 0 0 0,0.01259 l -0.134248,0.192142 a 2.6119024,2.5016882 0 0 0 -0.01888,0.01259 l -0.134247,0.1848 a 2.6119024,2.5016882 0 0 0 0,0.02349 l -0.134248,0.1848 a 2.6119024,2.5016882 0 0 0 -0.01888,0.01259 l -0.115369,0.204727 a 2.6119024,2.5016882 0 0 0 -0.01888,0 l -0.121453,0.204728 a 2.6119024,2.5016882 0 0 0 -0.01259,0.01259 l -0.134248,0.1848 a 2.6119024,2.5016882 0 0 0 0,0.02349 l -0.140541,0.198225 -0.134247,0.204727 a 2.6119024,2.5016882 0 0 0 0,0.01259 l -0.134248,0.204728 a 2.6119024,2.5016882 0 0 0 0,0.01259 l -0.140541,0.204727 -0.134247,0.217041 -0.134248,0.217062 -0.134248,0.217041 -0.14054,0.204727 a 2.6119024,2.5016882 0 0 0 0,0.01259 l -0.121452,0.204728 -0.134248,0.217041 -0.134248,0.217061 -0.14054,0.217041 -0.115369,0.217041 -0.140541,0.198225 -0.134248,0.217041 -0.121452,0.217041 -0.134248,0.204727 -0.121452,0.204728 a 2.6119024,2.5016882 0 0 0 -0.01888,0.01259 l -0.121453,0.204728 -0.134247,0.204727 h 0.01888 l -0.14054,0.198225 -0.121452,0.204728 -0.121453,0.192142 -0.01258,0.01259 -0.121453,0.1848 -0.121452,0.192142 -0.01259,0.01259 -0.109076,0.172215 -0.01259,0.01259 -0.121452,0.178717 v 0.01259 L 23.427901,67.2272 v 0.01259 l -0.121452,0.160048 v 0.02349 l -0.121452,0.153966 v 0.02328 l -0.121453,0.160049 v 0.01259 l -0.101734,0.160049 -0.01888,0.01259 -0.101734,0.147672 -0.01888,0.01259 -0.101735,0.146204 -0.01888,0.01259 -0.101735,0.127745 -0.01258,0.03713 -0.09544,0.127745 -0.01259,0.02349 -0.08936,0.111803 -0.0323,0.02349 -0.08936,0.111804 -0.01259,0.03713 -0.09544,0.09922 -0.02601,0.02349 -0.07698,0.09922 -0.0323,0.03713 -0.07698,0.07425 -0.0323,0.04971 -0.07069,0.08684 -0.01888,0.02349 -0.07698,0.08684 -0.02601,0.03713 -0.07698,0.07426 -0.0323,0.03713 -0.04468,0.03713 -0.04468,0.06209 -0.04468,0.02349 -0.04468,0.04971 -0.04468,0.04971 -0.04468,0.03713 -0.0323,0.02349 -0.0644,0.06209 -0.05706,0.04971 -0.01259,0.01259 -0.0644,0.04971 -0.07698,0.06209 -0.05705,0.02349 -0.0323,0.03713 h -0.01259 l -0.01888,0.01259 h -0.01259 v 0.01259 h -0.01259 -0.01888 l -0.01258,0.02349 h -0.01888 -0.01259 l -0.0323,0.01259 -0.04468,0.01259 h -0.01259 -0.01259 -0.0644 -0.01258 -0.01888 -0.02601 -0.01888 l -0.02601,-0.01259 h -0.0323 -0.01888 l -0.04468,-0.01259 -0.05706,-0.02349 h -0.0323 l -0.01259,-0.01259 h -0.0323 l -0.04468,-0.01259 -0.0644,-0.03713 -0.05706,-0.02349 h -0.01259 l -0.0644,-0.03713 h -0.01259 l -0.04468,-0.02349 h -0.0323 v -0.02328 l -0.08936,-0.02349 -0.04468,-0.03713 -0.0323,-0.01259 -0.04468,-0.02349 -0.04468,-0.03713 -0.0323,-0.01259 -0.05706,-0.03713 -0.05076,-0.02349 -0.04468,-0.03713 -0.04468,-0.02349 -0.05706,-0.03713 -0.0323,-0.01259 -0.05706,-0.04971 -0.0323,-0.03713 -0.07698,-0.03713 -0.0323,-0.02349 -0.07069,-0.06209 -0.0323,-0.01259 -0.07698,-0.06209 -0.0323,-0.01259 -0.07698,-0.06209 -0.01259,-0.02328 -0.08936,-0.07426 -0.0323,-0.01259 -0.08936,-0.06209 -0.01259,-0.01259 -0.09544,-0.07426 -0.01258,-0.01259 -0.109077,-0.07426 -0.01259,-0.02349 -0.08936,-0.08684 -0.01888,-0.02349 -0.101735,-0.07426 -0.01259,-0.01259 -0.109076,-0.08684 -0.01259,-0.01259 -0.109076,-0.08684 -0.121452,-0.09922 h -0.01259 l -0.109076,-0.09922 -0.121452,-0.09922 -0.01259,-0.01259 -0.109076,-0.08684 -0.01259,-0.01259 -0.121452,-0.09922 -0.121452,-0.111803 h -0.01259 l -0.109076,-0.09922 h -0.01259 L 17.018413,67.768176 16.884165,67.656373 16.762713,67.532404 16.622172,67.4206 16.487924,67.308797 16.353677,67.20958 a 2.6119024,2.5016882 0 0 0 0,-0.01259 l -0.134248,-0.111803 -0.121452,-0.111803 a 2.6119024,2.5016882 0 0 0 -0.01888,0 l -0.121452,-0.111803 a 2.6119024,2.5016882 0 0 0 -0.01259,0 l -0.134247,-0.111804 -0.140541,-0.123969 a 2.6119024,2.5016882 0 0 0 -0.01259,-0.01259 l -0.121452,-0.09922 a 2.6119024,2.5016882 0 0 0 -0.01259,-0.01259 l -0.121452,-0.09922 a 2.6119024,2.5016882 0 0 0 -0.01888,-0.01259 l -0.121453,-0.09922 a 2.6119024,2.5016882 0 0 0 -0.02601,-0.01259 l -0.121452,-0.09922 a 2.6119024,2.5016882 0 0 0 -0.01888,-0.01259 l -0.134248,-0.09922 a 2.6119024,2.5016882 0 0 0 -0.01258,-0.01259 l -0.121453,-0.09922 a 2.6119024,2.5016882 0 0 0 -0.01258,-0.02349 l -0.140751,-0.09922 a 2.6119024,2.5016882 0 0 0 -0.01258,-0.02349 l -0.134248,-0.09922 a 2.6119024,2.5016882 0 0 0 -0.01888,-0.01259 l -0.134247,-0.09922 a 2.6119024,2.5016882 0 0 0 -0.01259,-0.01259 l -0.140541,-0.09922 a 2.6119024,2.5016882 0 0 0 -0.02601,-0.01258 l -0.121452,-0.08684 a 2.6119024,2.5016882 0 0 0 -0.0323,-0.01259 l -0.121452,-0.09922 a 2.6119024,2.5016882 0 0 0 -0.0323,-0.01259 l -0.134248,-0.09922 a 2.6119024,2.5016882 0 0 0 -0.0323,-0.01259 l -0.121452,-0.08684 a 2.6119024,2.5016882 0 0 0 -0.04468,-0.01259 l -0.121452,-0.08684 a 2.6119024,2.5016882 0 0 0 -0.0323,-0.01259 l -0.134248,-0.08684 a 2.6119024,2.5016882 0 0 0 -0.04468,-0.02349 l -0.121452,-0.07426 a 2.6119024,2.5016882 0 0 0 -0.04468,-0.03713 l -0.134247,-0.07426 a 2.6119024,2.5016882 0 0 0 -0.0323,-0.02349 l -0.134248,-0.07426 a 2.6119024,2.5016882 0 0 0 -0.04468,-0.02328 l -0.14054,-0.07426 a 2.6119024,2.5016882 0 0 0 -0.04468,-0.02349 l -0.121452,-0.06209 a 2.6119024,2.5016882 0 0 0 -0.05706,-0.03713 l -0.134248,-0.06209 a 2.6119024,2.5016882 0 0 0 -0.05076,-0.02328 l -0.134248,-0.06209 a 2.6119024,2.5016882 0 0 0 -0.04468,-0.02328 l -0.134248,-0.06209 a 2.6119024,2.5016882 0 0 0 -0.07698,-0.01259 l -0.134247,-0.06209 a 2.6119024,2.5016882 0 0 0 -0.04468,-0.03713 l -0.14054,-0.04971 a 2.6119024,2.5016882 0 0 0 -0.07698,-0.02349 l -0.134248,-0.04971 a 2.6119024,2.5016882 0 0 0 -0.07698,-0.01259 l -0.121452,-0.04971 a 2.6119024,2.5016882 0 0 0 -0.07069,-0.01259 l -0.140751,-0.04971 a 2.6119024,2.5016882 0 0 0 -0.07698,-0.02328 l -0.121452,-0.02349 a 2.6119024,2.5016882 0 0 0 -0.07069,-0.01259 l -0.140541,-0.03713 a 2.6119024,2.5016882 0 0 0 -0.05706,-0.01258 l -0.134248,-0.03713 a 2.6119024,2.5016882 0 0 0 -0.0644,0 l -0.134247,-0.02349 a 2.6119024,2.5016882 0 0 0 -0.076983,-0.01259 l -0.1342477,-0.02349 a 2.6119024,2.5016882 0 0 0 -0.064397,0 l -0.1342477,-0.01259 a 2.6119024,2.5016882 0 0 0 -0.076983,-0.01259 H 9.4229297 a 2.6119024,2.5016882 0 0 0 -0.057055,-0.02349 H 9.2253339 a 2.6119024,2.5016882 0 0 0 -0.057055,0 h -0.134248 a 2.6119024,2.5016882 0 0 0 -0.076983,-0.01259 H 8.835596 a 2.6119024,2.5016882 0 0 0 -0.064397,0 l -0.1342477,0.01259 a 2.6119024,2.5016882 0 0 0 -0.044679,0 H 8.4580244 a 2.6119024,2.5016882 0 0 0 -0.064607,0 L 8.25917,63.514412 a 2.6119024,2.5016882 0 0 0 -0.057055,0 l -0.1405406,0.01259 a 2.6119024,2.5016882 0 0 0 -0.02601,0 l -0.1405406,0.01259 a 2.6119024,2.5016882 0 0 0 -0.057055,0 l -0.1214522,0.03713 a 2.6119024,2.5016882 0 0 0 -0.064397,0 l -0.1342477,0.01259 a 2.6119024,2.5016882 0 0 0 -0.032303,0.01259 l -0.1342477,0.02349 a 2.6119024,2.5016882 0 0 0 -0.044679,0.01259 l -0.1342477,0.01259 a 2.6119024,2.5016882 0 0 0 -0.044679,0.01259 l -0.1214522,0.03713 a 2.6119024,2.5016882 0 0 0 -0.044679,0 l -0.1405406,0.02349 a 2.6119024,2.5016882 0 0 0 -0.02601,0 l -0.1405405,0.03713 a 2.6119024,2.5016882 0 0 0 -0.032303,0.01259 l -0.1342477,0.03713 a 2.6119024,2.5016882 0 0 0 -0.032303,0.01259 l -0.1342477,0.03713 a 2.6119024,2.5016882 0 0 0 -0.032303,0.01259 l -0.1342477,0.02349 a 2.6119024,2.5016882 0 0 0 -0.032303,0.02328 l -0.1214522,0.02349 a 2.6119024,2.5016882 0 0 0 -0.02601,0.01259 l -0.1405406,0.03713 a 2.6119024,2.5016882 0 0 0 -0.02601,0.01259 l -0.1405405,0.04971 a 2.6119024,2.5016882 0 0 0 -0.012586,0 l -0.1342477,0.04971 a 2.6119024,2.5016882 0 0 0 -0.018879,0 L 5.36802,64.154606 a 2.6119024,2.5016882 0 0 0 -0.032303,0.01259 l -0.1214522,0.04971 a 2.6119024,2.5016882 0 0 0 -0.012586,0 l -0.1342477,0.04971 a 2.6119024,2.5016882 0 0 0 -0.018879,0 l -0.1342477,0.06209 a 2.6119024,2.5016882 0 0 0 -0.012586,0 l -0.1214522,0.03713 a 2.6119024,2.5016882 0 0 0 -0.018879,0 l -0.1342477,0.06209 a 2.6119024,2.5016882 0 0 0 -0.012586,0 l -0.1214522,0.04971 a 2.6119024,2.5016882 0 0 0 -0.012586,0.01259 l -0.1407504,0.04971 a 2.6119024,2.5016882 0 0 0 -0.012586,0 l -0.1214522,0.04971 a 2.6119024,2.5016882 0 0 0 -0.012586,0.01259 l -0.1405406,0.04971 -0.1342477,0.06209 -0.1214522,0.04971 a 2.6119024,2.5016882 0 0 0 -0.012586,0 l -0.1405406,0.06209 -0.1214522,0.04971 h -0.012586 l -0.1214522,0.06209 -0.1342477,0.04971 -0.1214522,0.06209 -0.1214522,0.04971 h -0.012586 l -0.1090762,0.03713 h -0.012586 l -0.1214522,0.04971 -0.1214523,0.06209 v -0.01259 l -0.1214522,0.06209 v -0.01259 l -0.1090762,0.04971 -0.012586,0.01259 -0.1090763,0.02349 h -0.012586 l -0.089359,0.04971 h -0.032303 v 0.01259 l -0.1017346,0.03713 -0.095442,0.03713 -0.02601,0.01259 -0.095442,0.02349 h -0.012586 l -0.089359,0.03713 -0.032303,0.01259 -0.076983,0.01259 v 0.02349 H 1.605099 l -0.089359,0.01259 -0.032303,0.01259 -0.076983,0.01259 v 0.02349 H 1.393868 l -0.076983,0.01259 -0.032303,0.01259 -0.076983,0.02349 -0.02601,0.01259 -0.1090763,0.01259 v 0.01259 H 1.015458 l -0.0323034,0.02328 -0.0893586,0.01259 -0.0446793,0.01259 H 0.8044374 v 0.01259 H 0.7597581 l -0.0507624,0.02349 H 0.6643164 l -0.0893586,0.01259 H 0.5302784 L 0.497975,65.886636 H 0.4532957 l -0.0323034,0.01259 v -0.01259 l -0.0893586,0.01259 H 0.2869544 0.2743687 l -0.0643969,0.02328 H 0.19738607 0.14033079 0.12145221 0.06439694 0 l 0.06439694,5.009621 0.12145221,-0.01259 a 2.6119024,2.5016882 0 0 0 0.0706898,0 h 0.12145221 a 2.6119024,2.5016882 0 0 0 0.0643969,0 l 0.12145221,-0.02349 a 2.6119024,2.5016882 0 0 0 0.0769827,0 l 0.12145221,-0.01259 a 2.6119024,2.5016882 0 0 0 0.0446793,0 l 0.1342477,-0.01259 a 2.6119024,2.5016882 0 0 0 0.0446793,0 l 0.13424772,-0.02328 a 2.6119024,2.5016882 0 0 0 0.064397,-0.01259 l 0.1214522,-0.01259 a 2.6119024,2.5016882 0 0 0 0.044679,0 l 0.1342477,-0.03713 a 2.6119024,2.5016882 0 0 0 0.044679,0 l 0.1342477,-0.02349 a 2.6119024,2.5016882 0 0 0 0.032303,0 l 0.1342477,-0.03713 a 2.6119024,2.5016882 0 0 0 0.050762,0 l 0.1342477,-0.02328 a 2.6119024,2.5016882 0 0 0 0.044679,-0.01259 l 0.1214523,-0.03713 a 2.6119024,2.5016882 0 0 0 0.032303,0 l 0.1342477,-0.03713 a 2.6119024,2.5016882 0 0 0 0.044679,-0.01259 l 0.1214522,-0.02328 a 2.6119024,2.5016882 0 0 0 0.032303,-0.02349 l 0.1342477,-0.02349 a 2.6119024,2.5016882 0 0 0 0.032303,-0.01259 l 0.1342477,-0.03713 a 2.6119024,2.5016882 0 0 0 0.012586,-0.01259 l 0.1405406,-0.03713 a 2.6119024,2.5016882 0 0 0 0.02601,-0.01259 l 0.1405406,-0.04971 a 2.6119024,2.5016882 0 0 0 0.012586,0 l 0.1342477,-0.04971 a 2.6119024,2.5016882 0 0 0 0.032303,0 l 0.1342477,-0.03713 a 2.6119024,2.5016882 0 0 0 0,-0.02349 l 0.1407503,-0.02349 a 2.6119024,2.5016882 0 0 0 0.02601,-0.01259 l 0.1405406,-0.04971 0.1342477,-0.04971 a 2.6119024,2.5016882 0 0 0 0.032303,-0.01259 l 0.1214522,-0.04971 a 2.6119024,2.5016882 0 0 0 0.012586,0 l 0.1214522,-0.06209 a 2.6119024,2.5016882 0 0 0 0.012586,0 l 0.1405406,-0.04971 a 2.6119024,2.5016882 0 0 0 0.012586,-0.01259 l 0.1342477,-0.04971 0.1405405,-0.06209 0.1342477,-0.04971 a 2.6119024,2.5016882 0 0 0 0.012586,0 L 4.9185,69.713803 a 2.6119024,2.5016882 0 0 0 0.018879,0 l 0.1342477,-0.04971 0.1214523,-0.06209 0.1342476,-0.04971 0.1214523,-0.06209 a 2.6119024,2.5016882 0 0 0 0.012586,0 l 0.1214522,-0.04971 h 0.018879 l 0.1214522,-0.06209 0.1153691,-0.03713 0.1405406,-0.04971 0.1214522,-0.06209 v 0.01259 l 0.1214522,-0.06209 0.1017346,-0.03713 0.018878,-0.01259 0.1017346,-0.02328 0.012586,-0.02349 0.1090762,-0.02349 0.012586,-0.01259 0.1090763,-0.03713 0.012586,-0.01259 0.095442,-0.03713 h 0.012586 l 0.1017346,-0.04971 h 0.018879 l 0.089359,-0.02349 0.032303,-0.01259 0.076983,-0.02349 0.02601,-0.01258 0.076983,-0.02349 h 0.032303 l 0.076983,-0.03713 h 0.02601 l 0.076983,-0.02349 h 0.032303 l 0.1090763,-0.03713 v -0.01259 l 0.057055,-0.02349 h 0.032303 l 0.076983,-0.01259 0.026011,-0.01259 0.064607,-0.01259 h 0.02601 l 0.064607,-0.02349 0.032303,-0.01259 0.1017346,-0.01259 0.044679,-0.01259 h 0.044679 l 0.032303,-0.02349 h 0.044679 l 0.064397,-0.01259 h 0.02601 l 0.032303,-0.01259 h 0.064397 l 0.02601,-0.01259 v 0.01259 l 0.095442,-0.01259 h 0.02601 0.032303 l 0.064397,-0.02349 h 0.012586 0.057055 0.018879 0.044679 0.032303 0.044679 0.012586 0.057055 0.064607 0.012586 0.064397 l 0.057055,0.02349 h 0.018879 0.044679 l 0.044679,0.01259 h 0.012586 0.018879 l 0.044679,0.01259 h 0.057055 l 0.044679,0.01259 h 0.032303 l 0.044679,0.02349 0.044679,0.01259 0.012586,0.01259 h 0.050762 l 0.012586,0.01259 0.057055,0.02349 0.064397,0.02349 0.076983,0.03713 0.057055,0.02328 h 0.018879 l 0.044679,0.03713 0.02601,0.01259 0.032304,0.01259 0.0323,0.02349 0.0323,0.01259 0.04468,0.01259 0.02601,0.03713 0.0644,0.02349 0.0323,0.01259 0.04468,0.03713 0.05706,0.03713 0.0323,0.01259 0.05706,0.04971 0.0323,0.01259 0.0644,0.04971 0.02601,0.01259 0.07698,0.04971 0.0323,0.02349 0.07698,0.04971 0.01259,0.01259 0.07698,0.04971 v 0.01259 l 0.121452,0.07425 0.01258,0.01259 0.109077,0.08684 0.01258,-0.02328 0.07698,0.07426 0.01259,0.01259 0.109076,0.07426 0.01259,0.01259 0.08936,0.07426 0.01888,0.01259 0.101735,0.08684 v -0.02349 l 0.109076,0.08684 0.01259,0.01259 0.109076,0.08684 0.01259,0.01259 0.109076,0.07426 0.01259,0.02349 0.109076,0.08684 0.121452,0.111804 h 0.01259 l 0.109076,0.08684 0.01259,0.01259 0.101734,0.09922 h 0.01888 l 0.101734,0.09922 0.01888,0.01259 0.121452,0.09922 0.134248,0.111803 0.121452,0.09922 0.121452,0.111804 0.134248,0.111803 0.134248,0.123969 0.121452,0.111803 0.14075,0.09922 0.134248,0.111803 a 2.6119024,2.5016882 0 0 0 0,0.01259 l 0.134248,0.111803 0.134247,0.111803 0.140541,0.111803 0.134248,0.111803 a 2.6119024,2.5016882 0 0 0 0.01258,0 l 0.121453,0.12397 a 2.6119024,2.5016882 0 0 0 0.01888,0 l 0.121452,0.111803 a 2.6119024,2.5016882 0 0 0 0.01259,0.01259 l 0.134248,0.09922 a 2.6119024,2.5016882 0 0 0 0,0.01259 l 0.14054,0.09922 a 2.6119024,2.5016882 0 0 0 0.01259,0.01259 l 0.134248,0.09922 a 2.6119024,2.5016882 0 0 0 0.01888,0.01259 l 0.121453,0.09922 a 2.6119024,2.5016882 0 0 0 0.01258,0.01259 l 0.134248,0.09922 a 2.6119024,2.5016882 0 0 0 0.01888,0.02328 l 0.134247,0.09922 a 2.6119024,2.5016882 0 0 0 0.01259,0.02328 l 0.14054,0.09922 a 2.6119024,2.5016882 0 0 0 0.01259,0.01259 l 0.134248,0.09922 a 2.6119024,2.5016882 0 0 0 0.01888,0.01259 l 0.134248,0.09922 a 2.6119024,2.5016882 0 0 0 0.01259,0.01259 l 0.14054,0.08684 a 2.6119024,2.5016882 0 0 0 0.02601,0.02349 l 0.121452,0.08684 a 2.6119024,2.5016882 0 0 0 0.0323,0.01259 l 0.134247,0.08684 a 2.6119024,2.5016882 0 0 0 0.0323,0.01259 l 0.121452,0.08684 a 2.6119024,2.5016882 0 0 0 0.04468,0.02349 l 0.121452,0.08684 a 2.6119024,2.5016882 0 0 0 0.0323,0.01259 l 0.134247,0.07426 a 2.6119024,2.5016882 0 0 0 0.04468,0.04971 l 0.134247,0.07426 a 2.6119024,2.5016882 0 0 0 0.0323,0.02328 l 0.134247,0.07425 a 2.6119024,2.5016882 0 0 0 0.0323,0.03713 l 0.134247,0.07426 a 2.6119024,2.5016882 0 0 0 0.04468,0.02349 l 0.14054,0.07426 a 2.6119024,2.5016882 0 0 0 0.04468,0.01259 l 0.134247,0.07426 a 2.6119024,2.5016882 0 0 0 0.04468,0.02349 l 0.14054,0.07426 a 2.6119024,2.5016882 0 0 0 0.04468,0.01259 l 0.134247,0.06209 a 2.6119024,2.5016882 0 0 0 0.05705,0.03713 l 0.140751,0.06209 a 2.6119024,2.5016882 0 0 0 0.05705,0.02349 l 0.134248,0.04971 a 2.6119024,2.5016882 0 0 0 0.06461,0.03713 l 0.134248,0.04971 a 2.6119024,2.5016882 0 0 0 0.07698,0.01259 l 0.121452,0.04971 a 2.6119024,2.5016882 0 0 0 0.08936,0.02328 l 0.121452,0.04971 a 2.6119024,2.5016882 0 0 0 0.08936,0.01259 l 0.140541,0.03713 a 2.6119024,2.5016882 0 0 0 0.07069,0.02349 l 0.14054,0.03713 a 2.6119024,2.5016882 0 0 0 0.08936,0.01259 l 0.134248,0.03713 a 2.6119024,2.5016882 0 0 0 0.07698,0.01259 l 0.134248,0.01259 a 2.6119024,2.5016882 0 0 0 0.109076,0.01259 l 0.134248,0.02349 a 2.6119024,2.5016882 0 0 0 0.08936,0 l 0.14054,0.01259 a 2.6119024,2.5016882 0 0 0 0.101735,0 l 0.14054,0.01259 a 2.6119024,2.5016882 0 0 0 0.101735,0 h 0.134248 a 2.6119024,2.5016882 0 0 0 0.109076,-0.01259 h 0.134248 a 2.6119024,2.5016882 0 0 0 0.109076,-0.01259 h 0.134248 a 2.6119024,2.5016882 0 0 0 0.109076,-0.02349 l 0.134247,-0.01259 a 2.6119024,2.5016882 0 0 0 0.121453,-0.02349 l 0.134247,-0.02328 a 2.6119024,2.5016882 0 0 0 0.109077,-0.02349 l 0.134247,-0.03713 a 2.6119024,2.5016882 0 0 0 0.109077,-0.02349 l 0.134247,-0.03713 a 2.6119024,2.5016882 0 0 0 0.121453,-0.04971 l 0.121452,-0.03713 a 2.6119024,2.5016882 0 0 0 0.08936,-0.03713 l 0.134248,-0.04971 a 2.6119024,2.5016882 0 0 0 0.121452,-0.04971 l 0.134248,-0.06209 a 2.6119024,2.5016882 0 0 0 0.09544,-0.03713 l 0.134247,-0.06209 a 2.6119024,2.5016882 0 0 0 0.08936,-0.04971 l 0.134248,-0.07426 a 2.6119024,2.5016882 0 0 0 0.09544,-0.03713 l 0.134248,-0.07426 a 2.6119024,2.5016882 0 0 0 0.07698,-0.06209 l 0.134247,-0.07426 a 2.6119024,2.5016882 0 0 0 0.07698,-0.06209 l 0.134248,-0.08684 a 2.6119024,2.5016882 0 0 0 0.07698,-0.04971 l 0.121453,-0.09922 a 2.6119024,2.5016882 0 0 0 0.07698,-0.04971 l 0.121453,-0.09922 a 2.6119024,2.5016882 0 0 0 0.05706,-0.04971 l 0.134248,-0.111803 a 2.6119024,2.5016882 0 0 0 0.06461,-0.04971 L 24.874,73.485953 a 2.6119024,2.5016882 0 0 0 0.04468,-0.02349 l 0.134247,-0.123969 a 2.6119024,2.5016882 0 0 0 0.04468,-0.03713 l 0.121452,-0.134038 a 2.6119024,2.5016882 0 0 0 0.0644,-0.04971 l 0.121452,-0.127745 a 2.6119024,2.5016882 0 0 0 0.02601,-0.03713 l 0.14054,-0.127745 a 2.6119024,2.5016882 0 0 0 0.02601,-0.04971 l 0.14054,-0.127746 a 2.6119024,2.5016882 0 0 0 0.02601,-0.03713 l 0.121452,-0.140121 a 2.6119024,2.5016882 0 0 0 0.04468,-0.04971 l 0.121452,-0.147673 a 2.6119024,2.5016882 0 0 0 0.0323,-0.02328 l 0.134248,-0.146204 a 2.6119024,2.5016882 0 0 0 0.01888,-0.02349 l 0.134248,-0.160048 a 2.6119024,2.5016882 0 0 0 0.01259,-0.03713 l 0.14054,-0.160048 a 2.6119024,2.5016882 0 0 0 0.01259,-0.02349 l 0.134247,-0.160048 a 2.6119024,2.5016882 0 0 0 0.01888,-0.03713 l 0.134248,-0.172215 a 2.6119024,2.5016882 0 0 0 0.01259,-0.01259 l 0.121453,-0.178718 a 2.6119024,2.5016882 0 0 0 0.01888,-0.01259 l 0.134248,-0.172215 a 2.6119024,2.5016882 0 0 0 0.01259,-0.03713 l 0.121452,-0.1848 a 2.6119024,2.5016882 0 0 0 0.01888,-0.01259 l 0.134248,-0.172214 a 2.6119024,2.5016882 0 0 0 0.01259,-0.03713 l 0.121452,-0.184801 a 2.6119024,2.5016882 0 0 0 0.01888,0 l 0.134247,-0.192142 a 2.6119024,2.5016882 0 0 0 0,-0.01259 l 0.134248,-0.204728 a 2.6119024,2.5016882 0 0 0 0.01888,-0.01259 l 0.115369,-0.192142 a 2.6119024,2.5016882 0 0 0 0.01888,-0.01259 l 0.07698,-0.127745 z m 25.163284,3.048031 c -2.877159,0.179976 -3.571933,2.012813 -3.571933,2.012813 h 3.226895 l 0.07069,-0.409287 0.121452,-0.754074 0.134248,-0.754073 0.01888,-0.09922 z m 7.501719,0 0.03839,0.312566 0.121453,1.1311 0.07069,0.569252 h 3.035172 l -2.319527,6.460104 v 0.02349 0.01258 l 0.14054,1.201811 0.134248,1.201789 0.121452,1.220396 0.134248,1.214249 0.134247,1.232793 0.140541,1.214207 0.121452,1.226605 0.134248,1.232813 0.134248,1.232792 0.121452,1.226605 0.14054,1.220416 0.134248,1.226605 0.121452,1.220395 0.134248,1.214208 0.134248,1.214207 0.121452,1.20179 0.14075,1.207998 0.134248,1.201832 0.121452,1.181946 0.134248,1.175758 0.134248,1.175779 0.121452,1.155894 a 2.6119024,2.5016882 0 0 0 0.01888,0 l 0.121453,1.143496 0.134247,1.1311 a 2.6119024,2.5016882 0 0 0 0,0.01259 l 0.134248,1.111277 0.121452,1.118724 0.134248,1.086462 a 2.6119024,2.5016882 0 0 0 0,0.01259 l 0.14054,1.07405 0.121453,1.06659 0.134247,1.04804 0.134248,1.02815 a 2.6119024,2.5016882 0 0 0 0,0.0126 l 0.134248,0.99717 a 2.6119024,2.5016882 0 0 0 0,0.0126 l 0.121452,0.98352 0.14054,0.97109 a 2.6119024,2.5016882 0 0 0 0,0.0235 l 0.134248,0.93888 a 2.6119024,2.5016882 0 0 0 0,0.0126 l 0.134248,0.92646 0.121452,0.91408 0.140541,0.88182 a 2.6119024,2.5016882 0 0 0 0,0.0126 l 0.134247,0.85575 0.134248,0.84339 a 2.6119024,2.5016882 0 0 0 0,0.0126 l 0.121452,0.7925 a 2.6119024,2.5016882 0 0 0 0.01259,0.0235 l 0.121452,0.7801 a 2.6119024,2.5016882 0 0 0 0,0.0126 l 0.14075,0.75407 a 2.6119024,2.5016882 0 0 0 0,0.0126 l 0.134248,0.72804 a 2.6119024,2.5016882 0 0 0 0,0.0126 l 0.134248,0.69578 a 2.6119024,2.5016882 0 0 0 0,0.0233 l 0.134248,0.67097 a 2.6119024,2.5016882 0 0 0 0,0.0126 l 0.14054,0.63875 a 2.6119024,2.5016882 0 0 0 0,0.0235 l 0.134248,0.59409 a 2.6119024,2.5016882 0 0 0 0,0.0371 l 0.134248,0.57546 a 2.6119024,2.5016882 0 0 0 0,0.0371 l 0.14054,0.53703 a 2.6119024,2.5016882 0 0 0 0.01259,0.0233 l 0.121452,0.50479 a 2.6119024,2.5016882 0 0 0 0.01259,0.0497 l 0.14054,0.47874 a 2.6119024,2.5016882 0 0 0 0.01259,0.0497 l 0.121452,0.4341 a 2.6119024,2.5016882 0 0 0 0.0323,0.0621 l 0.121452,0.40308 a 2.6119024,2.5016882 0 0 0 0.02601,0.0621 l 0.121452,0.36461 a 2.6119024,2.5016882 0 0 0 0.04468,0.0868 l 0.121452,0.33239 a 2.6119024,2.5016882 0 0 0 0.04468,0.0992 l 0.140541,0.27527 a 2.6119024,2.5016882 0 0 0 0.05706,0.12774 l 0.134248,0.24922 a 2.6119024,2.5016882 0 0 0 0.09544,0.17222 l 0.134247,0.19822 a 2.6119024,2.5016882 0 0 0 0.153336,0.21706 l 0.134248,0.16005 a 2.6119024,2.5016882 0 0 0 0.242862,0.27525 l 0.134248,0.12397 a 2.6119024,2.5016882 0 0 0 0.40891,0.31253 l 0.134248,0.0868 a 2.6119024,2.5016882 0 0 0 0.651752,0.28783 l 0.134247,0.0497 a 2.6119024,2.5016882 0 0 0 0.894572,0.0992 h 0.134248 a 2.6119024,2.5016882 0 0 0 0.84983,-0.1848 l 0.115369,-0.0497 a 2.6119024,2.5016882 0 0 0 0.619868,-0.35097 l 0.14054,-0.0992 a 2.6119024,2.5016882 0 0 0 0.364273,-0.31253 l 0.134248,-0.14767 a 2.6119024,2.5016882 0 0 0 0.210853,-0.27525 l 0.134247,-0.19214 a 2.6119024,2.5016882 0 0 0 0.121452,-0.21704 l 0.140541,-0.24309 a 2.6119024,2.5016882 0 0 0 0.08936,-0.16005 l 0.121452,-0.28784 a 2.6119024,2.5016882 0 0 0 0.05706,-0.13404 l 0.134248,-0.33238 a 2.6119024,2.5016882 0 0 0 0.0323,-0.0992 l 0.134248,-0.38943 a 2.6119024,2.5016882 0 0 0 0.01888,-0.0742 l 0.134248,-0.44776 a 2.6119024,2.5016882 0 0 0 0.01259,-0.0743 l 0.14054,-0.49236 a 2.6119024,2.5016882 0 0 0 0.01259,-0.0497 l 0.134248,-0.54943 a 2.6119024,2.5016882 0 0 0 0,-0.0497 l 0.14054,-0.58785 a 2.6119024,2.5016882 0 0 0 0.01259,-0.0497 l 0.121452,-0.65114 a 2.6119024,2.5016882 0 0 0 0.01259,-0.0371 l 0.121452,-0.69704 a 2.6119024,2.5016882 0 0 0 0.01888,-0.0233 l 0.121452,-0.75405 a 2.6119024,2.5016882 0 0 0 0.01259,-0.0126 l 0.121452,-0.79873 a 2.6119024,2.5016882 0 0 0 0.01259,-0.0126 l 0.121452,-0.83716 a 2.6119024,2.5016882 0 0 0 0,-0.0371 l 0.134248,-0.86941 a 2.6119024,2.5016882 0 0 0 0,-0.0371 l 0.14054,-0.9079 a 2.6119024,2.5016882 0 0 0 0,-0.0235 l 0.134248,-0.9649 a 2.6119024,2.5016882 0 0 0 0,-0.0233 l 0.134248,-1.00958 a 2.6119024,2.5016882 0 0 0 0,-0.0235 l 0.121452,-1.0418 a 2.6119024,2.5016882 0 0 0 0,-0.0126 l 0.14054,-1.08646 a 2.6119024,2.5016882 0 0 0 0,-0.0126 l 0.134248,-1.11871 a 2.6119024,2.5016882 0 0 0 0,-0.0126 l 0.134248,-1.15715 a 2.6119024,2.5016882 0 0 0 0,-0.0126 l 0.121452,-1.18818 a 2.6119024,2.5016882 0 0 0 0,-0.0233 l 0.134248,-1.2266 0.14054,-1.25885 a 2.6119024,2.5016882 0 0 0 0,-0.0235 l 0.121452,-1.2844 a 2.6119024,2.5016882 0 0 0 0.01259,0 l 0.121452,-1.33551 0.134248,-1.360936 0.134248,-1.373815 a 2.6119024,2.5016882 0 0 0 0,-0.01259 l 0.121452,-1.405678 0.140541,-1.431374 0.04468,-0.466364 h -0.85627 c 0,0 -2.05078,-0.09922 -4.293996,-1.105048 l -0.09544,1.13733 -0.134248,1.431353 -0.121452,1.386611 v 0.02349 l -0.14054,1.373795 -0.134248,1.348286 -0.121452,1.31626 -0.134248,1.29077 -0.134248,1.24605 v 0.0126 l -0.121452,1.21421 -0.14054,1.18815 -0.134248,1.1435 v 0.0126 l -0.121452,1.09886 v 0.0235 l -0.134248,1.06664 v 0.0233 l -0.121452,1.00957 v 0.0235 l -0.134248,0.98351 v 0.0126 l -0.140541,0.95248 h 0.01888 l -0.14054,0.90043 -0.08936,-0.46632 v -0.0126 l -0.121452,-0.75407 v -0.0126 l -0.134248,-0.7801 v -0.0235 l -0.121452,-0.7925 v -0.0126 l -0.134248,-0.84339 v -0.0126 l -0.14054,-0.85575 h 0.01888 l -0.14054,-0.89421 -0.134248,-0.91408 v -0.0126 l -0.121452,-0.92645 v -0.0235 l -0.134248,-0.9525 -0.134248,-0.98354 -0.121452,-1.00335 -0.140541,-1.00956 v -0.0233 l -0.115369,-1.02196 v -0.0235 l -0.14054,-1.04183 v -0.0126 l -0.134248,-1.06039 v -0.01259 l -0.121452,-1.074065 v -0.01259 l -0.134248,-1.09888 -0.14054,-1.112494 -0.115369,-1.131121 -0.140541,-1.143497 -0.134248,-1.143496 -0.121452,-1.175779 -0.134248,-1.16957 -0.14054,-1.175738 V 88.87914 L 73.890184,87.690975 73.755936,86.489164 73.621688,85.287375 73.500236,84.085585 73.365988,82.865169 73.225448,81.638564 73.103996,80.418169 72.969748,79.191522 72.8355,77.971127 72.714048,76.744522 72.5798,75.511709 72.43926,74.285105 72.317807,73.064709 a 2.6119024,2.5016882 0 0 0 0,-0.01259 l -0.134247,-1.214207 -0.134248,-1.220395 -0.134248,-1.214208 -0.121452,-1.214207 -0.14054,-1.207999 -0.134248,-1.20179 -0.121452,-1.20181 -0.134248,-1.16957 a 2.6119024,2.5016882 0 0 0 0,-0.02349 l -0.134248,-1.16957 -0.121452,-1.157131 -0.14054,-1.163361 -0.109077,-0.907892 h -5.252462 z m 45.534177,0.08684 -0.0954,1.303629 -0.0508,0.613932 h 5.23329 l 0.0189,-0.249218 0.13425,-1.654981 v -0.01259 z m 12.77973,0 0.11537,1.201811 0.13425,1.495247 0.12145,1.476011 v 0.01259 l 0.13425,1.476032 0.13424,1.495268 0.12146,1.488786 0.14054,1.476032 0.13424,1.476117 0.12146,1.476032 0.13424,1.463258 0.13425,1.463237 0.12145,1.450588 a 2.6119024,2.5016882 0 0 0 0.0189,0.01259 l 0.12145,1.431248 0.077,0.811108 h 2.7668 l -2.18532,6.172751 0.006,0.07426 0.12145,1.361083 0.13425,1.348266 0.13425,1.329031 a 2.6119024,2.5016882 0 0 0 0,0.02349 l 0.12145,1.297189 0.14054,1.290729 a 2.6119024,2.5016882 0 0 0 0,0.01259 l 0.13425,1.26518 a 2.6119024,2.5016882 0 0 0 0,0.01259 l 0.13425,1.246049 0.12145,1.226646 0.13425,1.200531 a 2.6119024,2.5016882 0 0 0 0,0.02349 l 0.14054,1.169549 0.12145,1.163382 0.13425,1.124888 0.13425,1.09886 0.13424,1.07407 0.12145,1.04178 a 2.6119024,2.5016882 0 0 0 0,0.0235 l 0.14055,0.99715 a 2.6119024,2.5016882 0 0 0 0,0.0126 l 0.13424,0.97114 0.13425,0.93887 a 2.6119024,2.5016882 0 0 0 0,0.0235 l 0.12145,0.89421 a 2.6119024,2.5016882 0 0 0 0.0189,0.0126 l 0.11537,0.8694 a 2.6119024,2.5016882 0 0 0 0,0.0235 l 0.14054,0.83716 a 2.6119024,2.5016882 0 0 0 0,0.0126 l 0.13425,0.79875 a 2.6119024,2.5016882 0 0 0 0,0.0126 l 0.13425,0.75403 a 2.6119024,2.5016882 0 0 0 0,0.0371 l 0.14054,0.70945 a 2.6119024,2.5016882 0 0 0 0,0.0235 l 0.13425,0.66477 a 2.6119024,2.5016882 0 0 0 0,0.0371 l 0.13424,0.63873 a 2.6119024,2.5016882 0 0 0 0,0.0235 l 0.13425,0.59407 a 2.6119024,2.5016882 0 0 0 0.0189,0.0497 l 0.12145,0.53703 a 2.6119024,2.5016882 0 0 0 0.0126,0.0621 l 0.13424,0.4924 a 2.6119024,2.5016882 0 0 0 0.0189,0.0621 l 0.13425,0.46015 a 2.6119024,2.5016882 0 0 0 0.0126,0.0621 l 0.14054,0.40925 a 2.6119024,2.5016882 0 0 0 0.0126,0.0868 l 0.13425,0.35718 a 2.6119024,2.5016882 0 0 0 0.0508,0.0992 l 0.11537,0.31997 a 2.6119024,2.5016882 0 0 0 0.0644,0.1118 l 0.13425,0.27527 a 2.6119024,2.5016882 0 0 0 0.077,0.16005 l 0.12145,0.23078 a 2.6119024,2.5016882 0 0 0 0.12145,0.17222 l 0.13425,0.20473 a 2.6119024,2.5016882 0 0 0 0.18522,0.23078 l 0.11537,0.14767 a 2.6119024,2.5016882 0 0 0 0.28763,0.27525 l 0.12166,0.1118 a 2.6119024,2.5016882 0 0 0 0.45365,0.30636 l 0.12166,0.0742 a 2.6119024,2.5016882 0 0 0 0.65173,0.24922 l 0.12167,0.0235 a 2.6119024,2.5016882 0 0 0 0.78593,0.0742 h 0.12145 a 2.6119024,2.5016882 0 0 0 0.74118,-0.14767 l 0.12166,-0.0497 a 2.6119024,2.5016882 0 0 0 0.55589,-0.26181 l 0.14033,-0.0868 a 2.6119024,2.5016882 0 0 0 0.35781,-0.2618 l 0.12166,-0.11181 a 2.6119024,2.5016882 0 0 0 0.24278,-0.24922 l 0.12166,-0.14012 a 2.6119024,2.5016882 0 0 0 0.16614,-0.20472 l 0.13424,-0.19215 a 2.6119024,2.5016882 0 0 0 0.0957,-0.15375 l 0.13424,-0.21706 a 2.6119024,2.5016882 0 0 0 0.077,-0.13404 l 0.12166,-0.26178 a 2.6119024,2.5016882 0 0 0 0.0571,-0.0992 l 0.12166,-0.28784 a 2.6119024,2.5016882 0 0 0 0.0447,-0.0868 l 0.12167,-0.31997 a 2.6119024,2.5016882 0 0 0 0.0321,-0.0743 l 0.13425,-0.34478 a 2.6119024,2.5016882 0 0 0 0.0126,-0.0621 l 0.14033,-0.38942 a 2.6119024,2.5016882 0 0 0 0.0126,-0.0497 l 0.13425,-0.40929 a 2.6119024,2.5016882 0 0 0 0.0168,-0.0621 l 0.13425,-0.43409 a 2.6119024,2.5016882 0 0 0 0,-0.0371 l 0.13424,-0.46635 a 2.6119024,2.5016882 0 0 0 0.0168,-0.0235 l 0.12167,-0.511 a 2.6119024,2.5016882 0 0 0 0.0126,-0.0235 l 0.12166,-0.52335 a 2.6119024,2.5016882 0 0 0 0.0126,-0.0126 l 0.14033,-0.54943 a 2.6119024,2.5016882 0 0 0 0,-0.0371 l 0.13425,-0.57551 a 2.6119024,2.5016882 0 0 0 0,-0.0233 l 0.13425,-0.60649 a 2.6119024,2.5016882 0 0 0 0,-0.0126 l 0.13424,-0.62633 a 2.6119024,2.5016882 0 0 0 0,-0.0126 l 0.12167,-0.6511 a 2.6119024,2.5016882 0 0 0 0.0168,-0.0126 l 0.12166,-0.6648 a 2.6119024,2.5016882 0 0 0 0,-0.0235 l 0.13425,-0.68959 a 2.6119024,2.5016882 0 0 0 0,-0.0235 l 0.13424,-0.7094 a 2.6119024,2.5016882 0 0 0 0,-0.0126 l 0.14033,-0.73547 a 2.6119024,2.5016882 0 0 0 0,-0.0235 l 0.13425,-0.75408 0.12145,-0.7801 a 2.6119024,2.5016882 0 0 0 0.0126,0 l 0.12166,-0.79871 a 2.6119024,2.5016882 0 0 0 0,-0.0126 l 0.13425,-0.81115 0.14033,-0.82474 a 2.6119024,2.5016882 0 0 0 0,-0.0126 l 0.12166,-0.8434 a 2.6119024,2.5016882 0 0 0 0.0126,0 l 0.12166,-0.8694 0.13425,-0.869415 a 2.6119024,2.5016882 0 0 0 0,-0.01259 l 0.13425,-0.881819 a 2.6119024,2.5016882 0 0 0 0,-0.01259 l 0.12145,-0.900404 0.14075,-0.914059 a 2.6119024,2.5016882 0 0 0 0,-0.01259 l 0.13425,-0.926477 0.13424,-0.938852 0.0646,-0.472531 -5.27163,0.02328 -0.0957,0.728021 -0.13424,0.926477 -0.14033,0.914059 -0.12167,0.881819 v 0.01259 l -0.13424,0.869401 v 0.01259 l -0.13425,0.855787 v 0.01259 l -0.12166,0.843353 v 0.0126 l -0.13425,0.82476 -0.14075,0.82479 h 0.0168 l -0.14033,0.79871 -0.13425,0.78011 -0.12166,0.75407 v 0.0235 l -0.13425,0.73421 v 0.0126 l -0.12166,0.70943 v 0.0235 l -0.13425,0.67717 v 0.0126 l -0.12166,0.67098 v 0.0126 l -0.14033,0.63872 v 0.0126 l -0.12145,0.62014 -0.10174,-0.60651 v -0.0126 l -0.13425,-0.79871 v -0.0235 l -0.12166,-0.82476 v -0.0235 l -0.14033,-0.88182 v -0.0126 l -0.13425,-0.91403 h 0.0126 l -0.13425,-0.95253 v -0.0235 l -0.13425,-0.98351 -0.12166,-1.02817 -0.13424,-1.0542 -0.14076,-1.086462 h 0.0168 l -0.14033,-1.118724 -0.13425,-1.143497 -0.12166,-1.16957 -0.13425,-1.188134 v -0.01259 l -0.13425,-1.220396 -0.12166,-1.24026 -0.14075,-1.265159 -0.13425,-1.284414 -0.12166,-1.303504 -0.13425,-1.335512 -0.13425,-1.341827 -0.12145,-1.367355 -0.14054,-1.373836 -0.13425,-1.386611 -0.12145,-1.405825 -0.13425,-1.4186 -0.13425,-1.437667 -0.12145,-1.431248 -0.14054,-1.463405 -0.13425,-1.444002 -0.12145,-1.463362 v -0.02349 l -0.13425,-1.456923 -0.13424,-1.482472 -0.12146,-1.488786 -0.14054,-1.476032 -0.13424,-1.495247 -0.12146,-1.488912 -0.13424,-1.476032 -0.14075,-1.488786 -0.0571,-0.786335 h -5.25246 z m 17.43794,0 -0.12167,0.766492 -0.13424,0.900403 -0.12167,0.914059 -0.13424,0.907892 a 2.6119024,2.5016882 0 0 0 0,0.02328 l -0.14033,0.926456 -0.12167,0.938853 -0.13424,0.952529 -0.13425,0.971114 -0.14033,0.971136 -0.12166,0.971093 a 2.6119024,2.5016882 0 0 0 0,0.01259 l -0.13425,0.98479 -0.13425,0.983491 a 2.6119024,2.5016882 0 0 0 0,0.02349 l -0.12166,0.997146 -0.13425,0.997187 -0.14075,1.015773 -0.12166,1.015752 -0.13425,1.009563 -0.13425,1.029407 -0.13425,1.015773 -0.12166,1.02817 -0.14075,1.029407 -0.13425,1.009563 v 0.01259 l -0.12166,1.015752 -0.13424,1.028169 -0.13425,1.015752 -0.12166,1.009564 -0.14034,1.015751 -0.13424,0.997188 v 0.01259 l -0.12166,1.003354 -0.13425,0.983532 -0.13425,0.997146 -0.12166,0.98477 -0.14075,0.971114 -0.10174,0.709415 8.3452,-23.604185 0.0892,-0.632537 0.13424,-0.971093 0.12166,-0.958718 0.13425,-0.938895 0.14075,-0.938852 0.12166,-0.926456 0.13425,-0.91408 0.13425,-0.894237 0.12166,-0.888006 0.13425,-0.869422 0.0957,-0.606464 h -5.2769 z m 30.48603,0 -10.08959,28.658569 h 0.0126 a 2.6119024,2.5016882 0 0 0 0.34504,-0.02349 l 0.12166,-0.01259 a 2.6119024,2.5016882 0 0 0 0.33224,-0.06209 l 0.14033,-0.02328 a 2.6119024,2.5016882 0 0 0 0.26825,-0.08684 l 0.14075,-0.04971 a 2.6119024,2.5016882 0 0 0 0.25568,-0.09922 l 0.13425,-0.07426 a 2.6119024,2.5016882 0 0 0 0.21091,-0.111803 l 0.13425,-0.07426 a 2.6119024,2.5016882 0 0 0 0.15354,-0.123969 l 0.13425,-0.08684 a 2.6119024,2.5016882 0 0 0 0.15334,-0.111803 l 0.13425,-0.111803 a 2.6119024,2.5016882 0 0 0 0.12166,-0.09922 l 0.12166,-0.111803 a 2.6119024,2.5016882 0 0 0 0.10908,-0.09922 l 0.12166,-0.134038 a 2.6119024,2.5016882 0 0 0 0.0891,-0.08684 l 0.12166,-0.160048 a 2.6119024,2.5016882 0 0 0 0.077,-0.07426 l 0.13425,-0.172215 a 2.6119024,2.5016882 0 0 0 0.0447,-0.07425 l 0.13425,-0.172215 a 2.6119024,2.5016882 0 0 0 0.0447,-0.06209 l 0.14033,-0.192142 a 2.6119024,2.5016882 0 0 0 0.0262,-0.06209 l 0.14075,-0.204728 a 2.6119024,2.5016882 0 0 0 0.0447,-0.06209 l 0.12166,-0.217062 a 2.6119024,2.5016882 0 0 0 0.0264,-0.03713 l 0.14033,-0.236926 a 2.6119024,2.5016882 0 0 0 0.0321,-0.03713 l 0.11516,-0.236947 a 2.6119024,2.5016882 0 0 0 0.0321,-0.02328 l 0.12166,-0.249239 a 2.6119024,2.5016882 0 0 0 0.0321,-0.04971 l 0.12166,-0.255364 a 2.6119024,2.5016882 0 0 0 0.0126,-0.03713 l 0.13425,-0.261804 a 2.6119024,2.5016882 0 0 0 0.0168,-0.03713 l 0.13425,-0.281395 a 2.6119024,2.5016882 0 0 0 0.0126,-0.02349 l 0.12166,-0.27525 a 2.6119024,2.5016882 0 0 0 0.0168,-0.03713 l 0.13425,-0.287836 a 2.6119024,2.5016882 0 0 0 0.0126,-0.03713 l 0.12166,-0.300127 a 2.6119024,2.5016882 0 0 0 0.0168,-0.01259 l 0.12166,-0.306357 a 2.6119024,2.5016882 0 0 0 0.0126,-0.02328 l 0.13425,-0.319992 a 2.6119024,2.5016882 0 0 0 0,-0.02328 l 0.14075,-0.332388 a 2.6119024,2.5016882 0 0 0 0,-0.01259 l 0.13424,-0.332389 a 2.6119024,2.5016882 0 0 0 0,-0.01259 l 0.13425,-0.332389 a 2.6119024,2.5016882 0 0 0 0,-0.02328 l 0.13425,-0.344786 a 2.6119024,2.5016882 0 0 0 0,-0.01259 L 168.2282,79.589 a 2.6119024,2.5016882 0 0 0 0,-0.01259 l 0.13425,-0.344786 a 2.6119024,2.5016882 0 0 0 0,-0.02349 l 0.13425,-0.358462 a 2.6119024,2.5016882 0 0 0 0,-0.02349 l 0.14033,-0.357204 a 2.6119024,2.5016882 0 0 0 0,-0.02328 l 0.13424,-0.35842 a 2.6119024,2.5016882 0 0 0 0,-0.01259 l 0.13425,-0.377047 0.12166,-0.395632 a 2.6119024,2.5016882 0 0 0 0.0168,0 l 0.11537,-0.370817 a 2.6119024,2.5016882 0 0 0 0,-0.02349 l 0.14033,-0.377047 a 2.6119024,2.5016882 0 0 0 0,-0.01259 l 0.13425,-0.389423 0.13425,-0.389465 0.12166,-0.389423 a 2.6119024,2.5016882 0 0 0 0.0168,0 l 0.12166,-0.409288 0.13425,-0.389423 0.13425,-0.409288 0.12166,-0.389444 0.13425,-0.4031 0.14033,-0.389423 0.12166,-0.396891 0.13425,-0.389423 0.13425,-0.389444 v -0.01259 l 0.12166,-0.377026 v -0.01259 l 0.13425,-0.377047 0.12166,-0.377026 v -0.01259 l 0.14033,-0.377005 0.13425,-0.377068 h -0.0126 l 0.13425,-0.364609 v -0.01259 l 0.13425,-0.364651 h -0.0126 l 0.13425,-0.364629 0.12166,-0.344786 0.0126,-0.01259 0.12166,-0.350973 0.12166,-0.332389 v -0.01259 l 0.13425,-0.332389 v -0.01259 l 0.12166,-0.319971 v -0.01259 l 0.12166,-0.306358 0.0168,-0.01259 0.10174,-0.306357 0.0168,-0.01259 0.12166,-0.293918 v -0.01259 l 0.10174,-0.27525 h 0.0126 l 0.10908,-0.287835 h 0.0126 l 0.12167,-0.287836 v -0.02349 l 0.10907,-0.243072 h 0.0126 l 0.10907,-0.261804 0.0126,-0.03713 0.10908,-0.198225 0.0126,-0.04971 0.10908,-0.204727 0.0126,-0.02349 0.0891,-0.192142 0.0168,-0.01259 v -0.01259 l 0.0891,-0.178508 0.0321,-0.03713 0.0707,-0.146204 0.0321,-0.04971 0.077,-0.127745 0.0321,-0.04971 0.0707,-0.111803 0.0321,-0.04971 0.0644,-0.09922 0.0262,-0.06209 0.0644,-0.07426 0.0447,-0.06209 0.0321,-0.06209 0.0447,-0.06209 0.0447,-0.06209 0.0447,-0.06209 0.0321,-0.02349 0.0571,-0.07426 0.0644,-0.07426 0.0126,-0.01259 0.0447,-0.04971 0.0126,-0.01259 0.0321,-0.03713 0.0321,-0.02349 h 0.0126 l 0.0168,0.01259 0.0447,0.03713 0.0571,0.04971 0.077,0.03713 0.0644,0.04971 0.0126,0.01259 0.0571,0.04971 0.0321,0.03713 0.0447,0.02349 0.0447,0.04971 0.0321,0.03713 0.0447,0.03713 0.0447,0.03713 0.0646,0.06209 0.0264,0.02349 0.0644,0.06209 0.0321,0.02349 0.0707,0.07426 0.0321,0.03713 0.077,0.07426 0.0321,0.03713 0.077,0.08684 0.0126,0.03713 0.0892,0.08684 0.0126,0.01259 0.0957,0.09922 0.0126,0.02349 0.10908,0.08684 -0.0168,0.01259 0.12166,0.127745 0.0168,0.02349 0.10173,0.111803 v 0.01259 l 0.10908,0.134038 0.0126,0.01259 0.10907,0.127745 0.0126,0.01259 0.10173,0.134038 0.0168,0.01259 0.10174,0.147672 v 0.01259 l 0.10907,0.147463 0.0126,0.01259 0.12166,0.146204 v 0.01259 l 0.12166,0.146205 v 0.01258 l 0.12167,0.160049 0.12166,0.160048 v 0.01259 l 0.12166,0.160048 0.0126,0.01259 0.10907,0.160048 0.0126,0.01259 0.12166,0.172215 0.12166,0.178507 0.0126,0.01259 0.12166,0.172215 0.12145,0.191093 0.14075,0.1848 0.12166,0.192142 0.13425,0.172215 v 0.01259 l 0.12166,0.1848 0.13425,0.192142 0.13425,0.1848 0.12166,0.204728 0.14075,0.192142 0.13425,0.1848 a 2.6119024,2.5016882 0 0 0 0,0.01259 l 0.13425,0.192142 0.12166,0.1848 0.13425,0.192142 a 2.6119024,2.5016882 0 0 0 0,0.01259 l 0.14033,0.1848 a 2.6119024,2.5016882 0 0 0 0,0.02349 l 0.13424,0.1848 0.13425,0.191093 0.14033,0.184801 a 2.6119024,2.5016882 0 0 0 0,0.01259 l 0.13425,0.172215 a 2.6119024,2.5016882 0 0 0 0.0126,0.02349 l 0.12166,0.184801 a 2.6119024,2.5016882 0 0 0 0.0168,0 l 0.11516,0.192142 a 2.6119024,2.5016882 0 0 0 0.0168,0.01259 l 0.13425,0.172214 a 2.6119024,2.5016882 0 0 0 0,0.01259 l 0.13425,0.178717 a 2.6119024,2.5016882 0 0 0 0.0168,0.01259 l 0.12166,0.172214 a 2.6119024,2.5016882 0 0 0 0.0126,0.01259 l 0.13425,0.172215 a 2.6119024,2.5016882 0 0 0 0,0.02349 l 0.14033,0.160049 a 2.6119024,2.5016882 0 0 0 0.0126,0.01259 l 0.13425,0.172215 a 2.6119024,2.5016882 0 0 0 0.0168,0.01259 l 0.12166,0.178717 a 2.6119024,2.5016882 0 0 0 0.0126,0.01259 l 0.13425,0.160048 a 2.6119024,2.5016882 0 0 0 0.0168,0.01259 l 0.13425,0.160048 a 2.6119024,2.5016882 0 0 0 0.0126,0.01259 l 0.12166,0.160048 a 2.6119024,2.5016882 0 0 0 0.0321,0.03713 l 0.13425,0.140121 a 2.6119024,2.5016882 0 0 0 0.0168,0.02349 l 0.13425,0.160048 a 2.6119024,2.5016882 0 0 0 0.0126,0.01259 l 0.14075,0.140121 a 2.6119024,2.5016882 0 0 0 0.0126,0.03713 l 0.13425,0.127745 a 2.6119024,2.5016882 0 0 0 0.0321,0.03713 l 0.13425,0.146204 a 2.6119024,2.5016882 0 0 0 0.0321,0.02349 l 0.13425,0.134038 a 2.6119024,2.5016882 0 0 0 0.0321,0.02349 l 0.12167,0.111803 a 2.6119024,2.5016882 0 0 0 0.0321,0.04971 l 0.13425,0.111803 a 2.6119024,2.5016882 0 0 0 0.0447,0.04971 l 0.13424,0.111803 a 2.6119024,2.5016882 0 0 0 0.0321,0.03713 l 0.13425,0.09922 a 2.6119024,2.5016882 0 0 0 0.0447,0.04971 l 0.14076,0.111803 a 2.6119024,2.5016882 0 0 0 0.0447,0.03713 l 0.13425,0.09922 a 2.6119024,2.5016882 0 0 0 0.0646,0.04971 l 0.13425,0.09922 a 2.6119024,2.5016882 0 0 0 0.0571,0.04971 l 0.14075,0.08684 a 2.6119024,2.5016882 0 0 0 0.0571,0.02349 l 0.12166,0.08684 a 2.6119024,2.5016882 0 0 0 0.0892,0.04971 l 0.12166,0.08684 a 2.6119024,2.5016882 0 0 0 0.0891,0.04971 l 0.12166,0.07426 a 2.6119024,2.5016882 0 0 0 0.0891,0.04971 l 0.14075,0.06209 a 2.6119024,2.5016882 0 0 0 0.077,0.04971 l 0.13425,0.06209 a 2.6119024,2.5016882 0 0 0 0.0891,0.03713 l 0.13425,0.06209 a 2.6119024,2.5016882 0 0 0 0.077,0.02349 l 0.14075,0.06209 a 2.6119024,2.5016882 0 0 0 0.10173,0.03713 l 0.13425,0.04971 a 2.6119024,2.5016882 0 0 0 0.077,0.02328 l 0.13424,0.03713 a 2.6119024,2.5016882 0 0 0 0.10908,0.02349 l 0.12166,0.03713 a 2.6119024,2.5016882 0 0 0 0.10908,0.02349 l 0.13424,0.03713 a 2.6119024,2.5016882 0 0 0 0.0891,0.01259 l 0.13425,0.01259 a 2.6119024,2.5016882 0 0 0 0.0957,0.02349 l 0.13425,0.02349 a 2.6119024,2.5016882 0 0 0 0.0892,0 l 0.13425,0.02349 a 2.6119024,2.5016882 0 0 0 0.10907,0.01259 h 0.12167 a 2.6119024,2.5016882 0 0 0 0.10173,0 h 0.12166 a 2.6119024,2.5016882 0 0 0 0.10908,0 h 0.12166 a 2.6119024,2.5016882 0 0 0 0.10173,0 h 0.12146 a 2.6119024,2.5016882 0 0 0 0.0891,-0.01259 l 0.14075,-0.02349 a 2.6119024,2.5016882 0 0 0 0.077,0 l 0.13425,-0.01259 a 2.6119024,2.5016882 0 0 0 0.0891,-0.01259 l 0.12166,-0.02349 a 2.6119024,2.5016882 0 0 0 0.0892,-0.01259 l 0.12166,-0.02328 a 2.6119024,2.5016882 0 0 0 0.077,-0.02349 l 0.13425,-0.02328 a 2.6119024,2.5016882 0 0 0 0.077,-0.01259 l 0.13425,-0.03713 a 2.6119024,2.5016882 0 0 0 0.0646,-0.01259 l 0.13424,-0.04971 a 2.6119024,2.5016882 0 0 0 0.077,-0.01259 l 0.12166,-0.04971 a 2.6119024,2.5016882 0 0 0 0.077,-0.01259 l 0.12166,-0.04971 a 2.6119024,2.5016882 0 0 0 0.0571,-0.03713 l 0.13425,-0.03713 a 2.6119024,2.5016882 0 0 0 0.0447,-0.02349 l 0.14034,-0.06209 a 2.6119024,2.5016882 0 0 0 0.0571,-0.01259 l 0.14075,-0.06209 a 2.6119024,2.5016882 0 0 0 0.0447,-0.01258 l 0.12166,-0.06209 a 2.6119024,2.5016882 0 0 0 0.0571,-0.02349 l 0.13425,-0.07426 a 2.6119024,2.5016882 0 0 0 0.0447,-0.01259 l 0.14034,-0.06209 a 2.6119024,2.5016882 0 0 0 0.0262,-0.03713 l 0.12145,-0.06209 a 2.6119024,2.5016882 0 0 0 0.0646,-0.03713 l 0.12167,-0.06209 a 2.6119024,2.5016882 0 0 0 0.0447,-0.02349 l 0.12166,-0.06209 a 2.6119024,2.5016882 0 0 0 0.0447,-0.03713 l 0.12166,-0.07426 a 2.6119024,2.5016882 0 0 0 0.0447,-0.01259 l 0.12166,-0.07426 a 2.6119024,2.5016882 0 0 0 0.0321,-0.02349 l 0.13425,-0.07426 a 2.6119024,2.5016882 0 0 0 0.0321,-0.02349 l 0.13424,-0.08684 a 2.6119024,2.5016882 0 0 0 0.0126,-0.02328 l 0.14033,-0.07426 a 2.6119024,2.5016882 0 0 0 0.0264,-0.02349 l 0.14075,-0.08684 a 2.6119024,2.5016882 0 0 0 0.0126,-0.01259 l 0.13424,-0.08684 a 2.6119024,2.5016882 0 0 0 0.0168,0 l 0.13425,-0.09922 a 2.6119024,2.5016882 0 0 0 0.0126,-0.01259 l 0.14075,-0.08684 a 2.6119024,2.5016882 0 0 0 0.0126,-0.01259 l 0.13425,-0.08684 a 2.6119024,2.5016882 0 0 0 0.0168,-0.01259 l 0.11537,-0.08684 a 2.6119024,2.5016882 0 0 0 0.0321,-0.02349 l 0.12166,-0.09922 a 2.6119024,2.5016882 0 0 0 0.0321,-0.01259 l 0.12166,-0.09922 a 2.6119024,2.5016882 0 0 0 0.0126,0 l 0.13425,-0.09922 a 2.6119024,2.5016882 0 0 0 0.0168,-0.01259 l 0.12166,-0.08684 a 2.6119024,2.5016882 0 0 0 0.0126,-0.02349 l 0.13425,-0.09922 0.14033,-0.123969 a 2.6119024,2.5016882 0 0 0 0.0126,0 l 0.12166,-0.09922 a 2.6119024,2.5016882 0 0 0 0.0126,0 l 0.12166,-0.09922 a 2.6119024,2.5016882 0 0 0 0.0168,-0.02349 l 0.13425,-0.09922 a 2.6119024,2.5016882 0 0 0 0,-0.02349 l 0.13425,-0.09922 0.14033,-0.09922 0.13424,-0.123969 0.13425,-0.09922 a 2.6119024,2.5016882 0 0 0 0,-0.02349 l 0.13425,-0.09922 0.12166,-0.09922 0.14075,-0.123969 0.13425,-0.09922 0.13425,-0.123969 0.12166,-0.09922 0.12166,-0.09922 0.13425,-0.09922 0.12145,-0.09922 0.12166,-0.08684 0.0168,-0.01259 0.12167,-0.09922 0.11515,-0.08684 0.10908,-0.08684 0.0126,-0.01259 0.12166,-0.08684 0.12166,-0.09922 v 0.02349 l 0.10908,-0.09922 h 0.0126 l 0.10908,-0.08684 h 0.0126 l 0.10908,-0.07426 0.0126,-0.01259 0.0892,-0.07426 0.0168,-0.01259 0.10173,-0.07425 0.0126,-0.02349 0.0954,-0.06209 0.0264,-0.01259 0.077,-0.06209 0.0321,-0.01259 0.0892,-0.07426 h 0.0168 l 0.0892,-0.06209 0.0264,-0.02349 0.077,-0.04971 0.0168,-0.01259 0.0892,-0.06209 0.0126,-0.02349 0.077,-0.03713 0.0321,-0.02349 0.077,-0.03713 0.0264,-0.02349 0.077,-0.04971 0.0321,-0.01259 0.0571,-0.02349 0.0321,-0.03713 0.0646,-0.02349 0.0264,-0.02349 0.0644,-0.02349 0.0447,-0.03713 0.0321,-0.01259 0.0262,-0.01259 0.0321,-0.02328 0.0447,-0.01259 0.0321,-0.01259 0.0447,-0.01259 0.0447,-0.03713 0.0321,-0.01259 0.0447,-0.01259 0.0321,-0.02349 0.0707,-0.02349 0.0644,-0.01259 0.0126,-0.02349 0.0447,-0.01259 h 0.0168 l 0.0571,-0.03713 h 0.0168 l 0.0447,-0.01259 h 0.0126 l 0.0447,-0.01259 h 0.0168 l 0.0571,-0.01259 0.0571,-0.02349 0.0646,-0.01259 h 0.0126 0.0644 l 0.0571,-0.01259 h 0.077 l 0.0644,-0.01259 h 0.0707 0.0646 0.0126 0.0646 0.0126 0.0571 0.0168 0.0571 0.0168 0.0447 l 0.0447,0.01259 h 0.0447 0.0321 0.0447 l 0.0447,0.01259 h 0.0321 0.0447 l 0.0571,0.01259 h 0.0321 0.0447 l 0.0447,0.02349 0.12166,0.02349 v -0.01259 l 0.0571,0.01259 0.051,0.01259 h 0.0571 l 0.0321,0.02349 0.0571,0.01259 h 0.0321 l 0.077,0.03713 h 0.0126 l 0.077,0.01259 0.0447,0.01259 0.0646,0.01259 h 0.0264 l 0.077,0.03713 h 0.0321 l 0.077,0.02349 h 0.0262 l 0.077,0.03713 h 0.0321 l 0.0892,0.02328 h 0.0168 l 0.0892,0.03713 0.0126,0.01259 0.0892,0.03713 h 0.0168 l 0.10174,0.02349 0.021,0.02349 0.10173,0.02328 h 0.021 l 0.0892,0.03713 0.0264,0.01259 0.0954,0.02349 0.0126,0.02328 0.10908,0.02349 h 0.0126 l 0.10908,0.04971 h 0.0126 l 0.10173,0.04971 h 0.021 l 0.12166,0.04971 0.12166,0.03713 h 0.0126 l 0.12166,0.04971 0.12166,0.06209 0.12166,0.04971 0.13425,0.04971 a 2.6119024,2.5016882 0 0 0 0.0126,0 l 0.12166,0.04971 0.021,0.01259 0.10174,0.04971 a 2.6119024,2.5016882 0 0 0 0.021,0 l 0.13424,0.04971 0.13425,0.06209 0.14033,0.03713 0.13425,0.04971 a 2.6119024,2.5016882 0 0 0 0.0126,0.01259 l 0.12167,0.04971 a 2.6119024,2.5016882 0 0 0 0.0168,0 l 0.11516,0.04971 a 2.6119024,2.5016882 0 0 0 0.0168,0 l 0.13425,0.04971 a 2.6119024,2.5016882 0 0 0 0.0126,0.01259 l 0.14033,0.04971 0.13425,0.04971 a 2.6119024,2.5016882 0 0 0 0.0321,0 l 0.12167,0.04971 a 2.6119024,2.5016882 0 0 0 0.0126,0.01259 l 0.13425,0.02349 a 2.6119024,2.5016882 0 0 0 0.021,0.02349 l 0.12166,0.02349 a 2.6119024,2.5016882 0 0 0 0.0262,0.01259 l 0.14033,0.04971 a 2.6119024,2.5016882 0 0 0 0.0126,0 l 0.13425,0.04971 a 2.6119024,2.5016882 0 0 0 0.0321,0 l 0.12166,0.04971 a 2.6119024,2.5016882 0 0 0 0.0321,0 l 0.13425,0.04971 a 2.6119024,2.5016882 0 0 0 0.0126,0 l 0.14034,0.02349 a 2.6119024,2.5016882 0 0 0 0.0262,0.01259 l 0.14075,0.03713 a 2.6119024,2.5016882 0 0 0 0.0264,0.01259 l 0.12166,0.03713 a 2.6119024,2.5016882 0 0 0 0.0447,0 l 0.14075,0.02349 a 2.6119024,2.5016882 0 0 0 0.0126,0.02328 l 0.13425,0.01259 a 2.6119024,2.5016882 0 0 0 0.051,0.01259 l 0.13425,0.03713 a 2.6119024,2.5016882 0 0 0 0.0321,0 l 0.13425,0.02349 a 2.6119024,2.5016882 0 0 0 0.0447,0 l 0.12166,0.03713 a 2.6119024,2.5016882 0 0 0 0.0447,0 l 0.13425,0.01259 a 2.6119024,2.5016882 0 0 0 0.0321,0.01258 l 0.13425,0.01259 a 2.6119024,2.5016882 0 0 0 0.0646,0 l 0.12166,0.02349 a 2.6119024,2.5016882 0 0 0 0.0447,0.01259 h 0.13425 a 2.6119024,2.5016882 0 0 0 0.0447,0.01259 h 0.13424 a 2.6119024,2.5016882 0 0 0 0.0644,0 l 0.12166,0.02349 a 2.6119024,2.5016882 0 0 0 0.0571,0 h 0.12166 a 2.6119024,2.5016882 0 0 0 0.0646,0 l 0.13424,0.01259 0.0571,-5.0096 h -0.0707 -0.0644 -0.0321 -0.0447 -0.0264 l -0.0644,-0.02349 h -0.0126 -0.0447 -0.0447 -0.0447 l -0.0321,-0.01259 h -0.0447 l -0.0957,-0.01259 h -0.0447 l -0.0447,-0.01259 h -0.0447 l -0.0447,-0.02349 h -0.0447 l -0.0447,-0.01259 h -0.0447 l -0.0447,-0.01259 -0.0646,-0.01259 h -0.0126 l -0.077,-0.02349 -0.0321,-0.01259 -0.077,-0.01259 h -0.0264 l -0.0644,-0.01259 V 65.5009 l -0.10173,-0.01259 -0.0321,-0.01259 -0.077,-0.02349 -0.0321,-0.01259 -0.0707,-0.01259 -0.0321,-0.01259 -0.0891,-0.03713 h -0.0168 l -0.077,-0.02349 h -0.0264 l -0.0891,-0.03713 h -0.0168 L 207.90768,65.267 h -0.0168 l -0.0892,-0.02328 -0.0321,-0.02349 -0.0891,-0.02349 h -0.0126 l -0.10908,-0.03713 h -0.0126 l -0.10908,-0.03713 -0.12166,-0.04971 -0.12166,-0.04971 h -0.0126 l -0.10907,-0.04971 -0.11516,-0.04971 a 2.6119024,2.5016882 0 0 0 -0.0168,0 l -0.12167,-0.03713 -0.12166,-0.04971 -0.12166,-0.06209 a 2.6119024,2.5016882 0 0 0 -0.0126,0 L 206.44092,64.725 h -0.0126 l -0.12167,-0.04971 -0.13424,-0.04971 a 2.6119024,2.5016882 0 0 0 0,-0.01259 l -0.14075,-0.04971 -0.12167,-0.04971 a 2.6119024,2.5016882 0 0 0 -0.0126,0 l -0.13425,-0.06209 -0.12166,-0.03713 a 2.6119024,2.5016882 0 0 0 -0.0168,0 l -0.13425,-0.04971 a 2.6119024,2.5016882 0 0 0 -0.0126,-0.01259 l -0.12166,-0.04971 a 2.6119024,2.5016882 0 0 0 -0.0168,0 l -0.13425,-0.04971 -0.13424,-0.04971 a 2.6119024,2.5016882 0 0 0 -0.0168,-0.01259 l -0.13425,-0.04971 a 2.6119024,2.5016882 0 0 0 -0.0126,0 l -0.12166,-0.04971 a 2.6119024,2.5016882 0 0 0 -0.021,0 l -0.13424,-0.03713 a 2.6119024,2.5016882 0 0 0 -0.0126,-0.02349 l -0.13425,-0.02349 a 2.6119024,2.5016882 0 0 0 -0.0168,-0.02349 l -0.13425,-0.03713 a 2.6119024,2.5016882 0 0 0 -0.0168,0 l -0.13425,-0.04971 a 2.6119024,2.5016882 0 0 0 -0.0321,0 l -0.11516,-0.04971 a 2.6119024,2.5016882 0 0 0 -0.0321,0 l -0.14075,-0.04971 a 2.6119024,2.5016882 0 0 0 -0.0126,0 l -0.13425,-0.02349 a 2.6119024,2.5016882 0 0 0 -0.0321,-0.02349 l -0.12166,-0.02349 a 2.6119024,2.5016882 0 0 0 -0.0447,-0.01259 l -0.12166,-0.03713 a 2.6119024,2.5016882 0 0 0 -0.0321,0 l -0.13424,-0.02349 a 2.6119024,2.5016882 0 0 0 -0.0321,-0.02349 l -0.13424,-0.02349 a 2.6119024,2.5016882 0 0 0 -0.0321,0 l -0.13425,-0.03713 a 2.6119024,2.5016882 0 0 0 -0.0447,-0.01259 l -0.13424,-0.01259 a 2.6119024,2.5016882 0 0 0 -0.0168,-0.02349 L 202.56528,63.508 a 2.6119024,2.5016882 0 0 0 -0.0447,-0.01259 l -0.13425,-0.01259 a 2.6119024,2.5016882 0 0 0 -0.0321,-0.02349 l -0.13425,-0.01259 a 2.6119024,2.5016882 0 0 0 -0.0646,0 l -0.12166,-0.01259 a 2.6119024,2.5016882 0 0 0 -0.0447,-0.01259 l -0.13425,-0.02349 a 2.6119024,2.5016882 0 0 0 -0.0447,0 l -0.14076,-0.01259 a 2.6119024,2.5016882 0 0 0 -0.0447,0 h -0.13425 a 2.6119024,2.5016882 0 0 0 -0.0447,-0.01259 h -0.13425 a 2.6119024,2.5016882 0 0 0 -0.0644,0 h -0.12166 a 2.6119024,2.5016882 0 0 0 -0.0571,0 H 200.934 a 2.6119024,2.5016882 0 0 0 -0.051,0 h -0.13425 a 2.6119024,2.5016882 0 0 0 -0.0571,0 h -0.14033 a 2.6119024,2.5016882 0 0 0 -0.0571,0 l -0.13425,0.01259 a 2.6119024,2.5016882 0 0 0 -0.0646,0 l -0.12166,0.01259 a 2.6119024,2.5016882 0 0 0 -0.077,0 l -0.12166,0.02349 a 2.6119024,2.5016882 0 0 0 -0.0571,0.01259 l -0.13425,0.01259 a 2.6119024,2.5016882 0 0 0 -0.077,0.01259 l -0.12166,0.02349 a 2.6119024,2.5016882 0 0 0 -0.077,0.01259 l -0.13425,0.02349 a 2.6119024,2.5016882 0 0 0 -0.0447,0.02349 l -0.14075,0.02349 a 2.6119024,2.5016882 0 0 0 -0.0707,0.02349 l -0.14033,0.02349 a 2.6119024,2.5016882 0 0 0 -0.0571,0.01259 l -0.13424,0.03713 a 2.6119024,2.5016882 0 0 0 -0.0644,0.02349 l -0.13425,0.03713 a 2.6119024,2.5016882 0 0 0 -0.0644,0.02349 l -0.13424,0.04971 a 2.6119024,2.5016882 0 0 0 -0.0571,0.02349 l -0.12166,0.03713 a 2.6119024,2.5016882 0 0 0 -0.0644,0.02349 l -0.13425,0.06209 a 2.6119024,2.5016882 0 0 0 -0.0644,0.01259 l -0.13425,0.06209 a 2.6119024,2.5016882 0 0 0 -0.0447,0.01259 l -0.12145,0.06209 a 2.6119024,2.5016882 0 0 0 -0.0571,0.03713 l -0.14033,0.06209 a 2.6119024,2.5016882 0 0 0 -0.0264,0.01259 l -0.14033,0.06209 a 2.6119024,2.5016882 0 0 0 -0.0447,0.03713 l -0.13425,0.06209 a 2.6119024,2.5016882 0 0 0 -0.0321,0.02349 l -0.13425,0.06209 a 2.6119024,2.5016882 0 0 0 -0.0321,0.03713 l -0.13425,0.07426 a 2.6119024,2.5016882 0 0 0 -0.0447,0.02349 l -0.14033,0.07426 a 2.6119024,2.5016882 0 0 0 -0.0264,0.01259 l -0.12166,0.07426 a 2.6119024,2.5016882 0 0 0 -0.0321,0.03713 l -0.13425,0.07426 a 2.6119024,2.5016882 0 0 0 -0.0321,0.02328 l -0.13424,0.08684 a 2.6119024,2.5016882 0 0 0 -0.0168,0.01259 l -0.13425,0.08684 a 2.6119024,2.5016882 0 0 0 -0.0321,0.01259 l -0.12166,0.07426 a 2.6119024,2.5016882 0 0 0 -0.0264,0.02349 l -0.14033,0.08684 a 2.6119024,2.5016882 0 0 0 -0.0126,0.01259 l -0.13425,0.08684 a 2.6119024,2.5016882 0 0 0 -0.0168,0.01259 l -0.13425,0.08684 a 2.6119024,2.5016882 0 0 0 -0.0126,0.01259 l -0.14075,0.08684 a 2.6119024,2.5016882 0 0 0 -0.0126,0.02349 l -0.13425,0.09922 a 2.6119024,2.5016882 0 0 0 -0.0168,0 l -0.11537,0.09922 a 2.6119024,2.5016882 0 0 0 -0.0321,0.02328 l -0.12167,0.08684 a 2.6119024,2.5016882 0 0 0 -0.0168,0.02349 l -0.13424,0.09922 a 2.6119024,2.5016882 0 0 0 -0.0126,0.02349 l -0.13425,0.08684 a 2.6119024,2.5016882 0 0 0 0,0.01259 l -0.14033,0.09922 -0.13425,0.09922 a 2.6119024,2.5016882 0 0 0 -0.0126,0.01259 l -0.14075,0.09922 a 2.6119024,2.5016882 0 0 0 0,0.02349 l -0.13425,0.09922 -0.13425,0.09922 a 2.6119024,2.5016882 0 0 0 -0.0168,0.02349 l -0.12145,0.09922 -0.13425,0.09922 a 2.6119024,2.5016882 0 0 0 0,0.02349 l -0.13425,0.09922 -0.13424,0.09922 a 2.6119024,2.5016882 0 0 0 0,0.02349 l -0.14033,0.09922 -0.13425,0.09922 -0.12166,0.111804 -0.13425,0.09922 -0.14033,0.111803 -0.12166,0.09922 -0.11516,0.09922 h -0.0168 l -0.12167,0.09922 -0.12166,0.09922 h -0.0126 l -0.12167,0.09922 -0.12166,0.09922 v -0.02349 l -0.12166,0.09922 -0.12166,0.09922 h -0.0126 l -0.10907,0.08684 -0.0126,0.01259 -0.10908,0.08684 -0.12166,0.08684 h -0.0126 l -0.10174,0.08684 -0.10907,0.08684 -0.0126,0.02349 -0.10908,0.06209 -0.0126,0.01259 -0.0891,0.07426 -0.0168,0.02328 -0.10174,0.07426 -0.0168,0.01259 -0.0891,0.06209 -0.0126,0.01259 -0.0954,0.06209 -0.0126,0.02328 -0.10173,0.06209 -0.0168,0.01259 -0.077,0.04971 -0.0262,0.02349 -0.077,0.04971 -0.0321,0.01259 -0.077,0.04971 -0.0264,0.03713 -0.0644,0.04971 -0.0126,-0.02349 -0.0956,0.06209 -0.0892,0.06209 -0.0447,0.02349 v 0.01259 l -0.0571,0.03713 -0.0321,0.01259 -0.0447,0.02349 -0.0447,0.02328 -0.0646,0.02349 -0.0262,0.01259 -0.051,0.03713 -0.0447,0.01259 -0.0264,0.01259 -0.0644,0.03713 -0.0321,0.01259 -0.0447,0.02349 -0.0264,0.01259 -0.0646,0.01259 -0.0126,0.01259 -0.0447,0.02349 h -0.0168 l -0.0571,0.02328 h -0.0126 l -0.0644,0.01259 -0.0571,0.03713 h -0.0168 l -0.0262,0.01259 h -0.0321 -0.0321 l -0.0321,0.01259 h -0.0262 -0.0168 l -0.0321,0.02349 h -0.0264 -0.0168 l -0.0707,0.01259 h -0.0321 -0.0168 -0.0264 -0.0168 -0.0126 -0.0321 -0.0264 l -0.0644,-0.01259 h -0.0126 -0.0168 -0.0126 l -0.0321,-0.02349 h -0.0126 -0.0126 -0.0168 v -0.01259 h -0.0126 -0.0168 l -0.0126,-0.01259 h -0.0321 l -0.0126,-0.01259 -0.0321,-0.02328 -0.0447,-0.01259 -0.0321,-0.01259 -0.0126,-0.01259 h -0.0126 l -0.0321,-0.02349 -0.0126,-0.01259 -0.0321,-0.01259 -0.0447,-0.03713 -0.0646,-0.04971 -0.0571,-0.03713 h -0.0168 l -0.0264,-0.02328 -0.0321,-0.02349 -0.0126,-0.01259 -0.0447,-0.04971 -0.0321,-0.03713 -0.0646,-0.04971 -0.0447,-0.02349 -0.0321,-0.03713 -0.0447,-0.03713 -0.0447,-0.04971 -0.0571,-0.04971 -0.0168,-0.01259 -0.0126,-0.02328 -0.0571,-0.07426 -0.0321,-0.02349 -0.077,-0.06209 -0.0321,-0.04971 -0.0707,-0.07426 -0.0168,-0.01259 -0.0892,-0.08684 -0.0126,-0.03713 -0.0957,-0.08684 -0.0126,-0.02349 -0.10908,-0.08684 0.0168,-0.01259 -0.10908,-0.111803 -0.0264,-0.03713 -0.0954,-0.111803 -0.0126,-0.01259 -0.10908,-0.111803 -0.0126,-0.01259 -0.0892,-0.134037 -0.0168,-0.01259 -0.10174,-0.127745 -0.0126,-0.02349 -0.10908,-0.127745 -0.0126,-0.01258 -0.10907,-0.147673 -0.0126,-0.01259 -0.10908,-0.147462 v -0.01259 l -0.12166,-0.160048 -0.0126,0.01259 -0.10908,-0.160048 v -0.01259 l -0.12166,-0.146204 -0.0126,-0.01259 -0.12166,-0.172214 h 0.0126 l -0.11516,-0.160049 -0.0168,-0.01258 -0.12167,-0.160049 v -0.02349 l -0.12166,-0.172215 -0.13425,-0.172214 v -0.01259 l -0.12166,-0.172215 -0.12166,-0.178717 -0.0126,-0.01259 -0.12167,-0.1848 -0.13424,-0.192142 h 0.0126 l -0.13425,-0.184801 -0.14033,-0.192142 -0.12166,-0.1848 -0.13425,-0.192142 a 2.6119024,2.5016882 0 0 0 0,-0.01259 l -0.13424,-0.1848 -0.12167,-0.192142 -0.13424,-0.1848 a 2.6119024,2.5016882 0 0 0 0,-0.02349 l -0.14033,-0.1848 -0.13425,-0.1848 a 2.6119024,2.5016882 0 0 0 0,-0.02349 l -0.12166,-0.1848 a 2.6119024,2.5016882 0 0 0 -0.0126,0 l -0.12145,-0.192142 a 2.6119024,2.5016882 0 0 0 -0.0168,0 l -0.11537,-0.1848 a 2.6119024,2.5016882 0 0 0 -0.0168,-0.01259 l -0.13425,-0.192142 -0.12166,-0.1848 a 2.6119024,2.5016882 0 0 0 -0.0126,-0.02328 l -0.12166,-0.1848 a 2.6119024,2.5016882 0 0 0 -0.0168,0 l -0.13425,-0.184801 -0.13425,-0.192142 a 2.6119024,2.5016882 0 0 0 0,-0.01259 l -0.14075,-0.172215 a 2.6119024,2.5016882 0 0 0 -0.0126,-0.02349 l -0.12167,-0.172215 a 2.6119024,2.5016882 0 0 0 -0.0126,-0.01259 l -0.12166,-0.172214 a 2.6119024,2.5016882 0 0 0 -0.0168,-0.02349 L 181.284,61.598488 a 2.6119024,2.5016882 0 0 0 -0.0126,-0.01259 l -0.12166,-0.160049 a 2.6119024,2.5016882 0 0 0 -0.0168,-0.03713 l -0.13425,-0.153966 a 2.6119024,2.5016882 0 0 0 -0.0126,-0.02349 l -0.12167,-0.160049 a 2.6119024,2.5016882 0 0 0 -0.0321,-0.02328 l -0.12166,-0.160049 a 2.6119024,2.5016882 0 0 0 -0.0126,-0.01259 l -0.13424,-0.160049 a 2.6119024,2.5016882 0 0 0 -0.0168,-0.02349 l -0.13424,-0.153965 a 2.6119024,2.5016882 0 0 0 -0.0126,-0.03713 l -0.14075,-0.147463 a 2.6119024,2.5016882 0 0 0 -0.0126,-0.01259 l -0.13424,-0.147672 a 2.6119024,2.5016882 0 0 0 -0.0321,-0.02349 l -0.12166,-0.146205 a 2.6119024,2.5016882 0 0 0 -0.0321,-0.02349 l -0.13425,-0.134038 a 2.6119024,2.5016882 0 0 0 -0.0321,-0.02349 l -0.12167,-0.146204 a 2.6119024,2.5016882 0 0 0 -0.0264,-0.02349 l -0.14075,-0.123969 a 2.6119024,2.5016882 0 0 0 -0.0262,-0.03713 l -0.14075,-0.111803 a 2.6119024,2.5016882 0 0 0 -0.0321,-0.04971 l -0.13425,-0.111803 a 2.6119024,2.5016882 0 0 0 -0.0447,-0.03713 l -0.10907,-0.09922 z m -56.4161,12.204689 -1.94252,5.501597 h -3.7189 l -0.0323,0.47876 -0.12796,1.52067 h 5.23969 l 0.0831,-1.143517 0.14054,-1.693325 0.13425,-1.693304 0.12145,-1.693325 z m -65.988136,5.463273 -0.02601,0.111803 h 0.01259 l -0.134248,0.537033 v 0.01259 l -0.121452,0.504792 v 0.02349 l -0.14054,0.504751 v 0.01259 l -0.121453,0.478761 v 0.01259 l -0.134247,0.47874 h 0.01888 l -0.121452,0.434081 -0.01888,0.03713 -0.121452,0.415455 v 0.02349 l -0.121452,0.403079 v 0.01259 l -0.121452,0.377047 -0.01259,0.03713 -0.101735,0.344807 -0.01888,0.03713 -0.101735,0.312524 -0.01888,0.04971 -0.08936,0.29396 -0.01259,0.03713 -0.07698,0.192142 -0.07698,-0.160048 -0.01259,-0.04971 -0.109076,-0.204728 -0.01259,-0.02349 -0.109076,-0.249218 h -0.01259 L 47.314978,81.53255 V 81.51996 L 47.19354,81.25814 v -0.02328 l -0.121452,-0.287835 h -0.01259 l -0.08936,-0.230801 -2.249236,6.440994 0.08307,0.08684 a 2.6119024,2.5016882 0 0 0 0.09544,0.08684 l 0.121452,0.134038 a 2.6119024,2.5016882 0 0 0 0.115369,0.09922 l 0.121452,0.111803 a 2.6119024,2.5016882 0 0 0 0.140541,0.111803 l 0.134247,0.08684 a 2.6119024,2.5016882 0 0 0 0.153336,0.111804 l 0.134248,0.08684 a 2.6119024,2.5016882 0 0 0 0.210853,0.111384 l 0.121452,0.07425 a 2.6119024,2.5016882 0 0 0 0.242842,0.09922 l 0.134247,0.06209 a 2.6119024,2.5016882 0 0 0 0.255637,0.08684 l 0.140541,0.04971 a 2.6119024,2.5016882 0 0 0 0.313028,0.07426 l 0.121452,0.02349 a 2.6119024,2.5016882 0 0 0 0.351498,0.04971 h 0.121452 a 2.6119024,2.5016882 0 0 0 0.345038,-0.02349 l 0.134248,-0.01259 a 2.6119024,2.5016882 0 0 0 0.351477,-0.04971 l 0.134248,-0.02349 a 2.6119024,2.5016882 0 0 0 0.300274,-0.09922 l 0.14054,-0.04971 a 2.6119024,2.5016882 0 0 0 0.287605,-0.111803 l 0.134248,-0.07426 a 2.6119024,2.5016882 0 0 0 0.242841,-0.134038 l 0.121453,-0.08684 a 2.6119024,2.5016882 0 0 0 0.210831,-0.147673 l 0.134248,-0.09922 a 2.6119024,2.5016882 0 0 0 0.153336,-0.127745 l 0.134248,-0.134038 a 2.6119024,2.5016882 0 0 0 0.134248,-0.127745 l 0.14054,-0.134038 a 2.6119024,2.5016882 0 0 0 0.101735,-0.127745 l 0.134247,-0.160049 a 2.6119024,2.5016882 0 0 0 0.07698,-0.111803 l 0.140541,-0.172214 a 2.6119024,2.5016882 0 0 0 0.07069,-0.09922 l 0.121453,-0.204728 a 2.6119024,2.5016882 0 0 0 0.0644,-0.09922 l 0.134247,-0.217062 a 2.6119024,2.5016882 0 0 0 0.04468,-0.07426 l 0.134247,-0.249218 a 2.6119024,2.5016882 0 0 0 0.05076,-0.08684 l 0.115369,-0.261783 a 2.6119024,2.5016882 0 0 0 0.0323,-0.06209 l 0.140541,-0.287835 a 2.6119024,2.5016882 0 0 0 0.02601,-0.06209 l 0.121452,-0.306336 a 2.6119024,2.5016882 0 0 0 0.0323,-0.06209 l 0.134247,-0.332389 a 2.6119024,2.5016882 0 0 0 0.01888,-0.04971 l 0.115369,-0.344786 a 2.6119024,2.5016882 0 0 0 0.0323,-0.04971 l 0.121453,-0.36465 a 2.6119024,2.5016882 0 0 0 0.01888,-0.04971 l 0.134248,-0.389423 a 2.6119024,2.5016882 0 0 0 0,-0.02349 l 0.134248,-0.409288 a 2.6119024,2.5016882 0 0 0 0.01258,-0.02349 l 0.140541,-0.434103 a 2.6119024,2.5016882 0 0 0 0,-0.03713 l 0.134248,-0.434081 a 2.6119024,2.5016882 0 0 0 0,-0.02349 l 0.134247,-0.466321 a 2.6119024,2.5016882 0 0 0 0,-0.01259 l 0.140541,-0.492354 a 2.6119024,2.5016882 0 0 0 0,-0.01259 l 0.134248,-0.492396 a 2.6119024,2.5016882 0 0 0 0,-0.03713 l 0.134247,-0.504792 a 2.6119024,2.5016882 0 0 0 0,-0.02349 l 0.140541,-0.530824 a 2.6119024,2.5016882 0 0 0 0,-0.02349 L 54.2895,78.531756 a 2.6119024,2.5016882 0 0 0 0,-0.02328 l 0.134247,-0.561847 a 2.6119024,2.5016882 0 0 0 0,-0.01259 l 0.134248,-0.569294 a 2.6119024,2.5016882 0 0 0 0,-0.01259 l 0.121452,-0.594067 a 2.6119024,2.5016882 0 0 0 0.01888,0 v -0.01259 h -5.3547 z m 49.329756,0.03713 -0.664526,2.00006 h 3.859476 l -0.0189,-0.243093 -0.12775,-1.757282 h -3.047963 z m -0.900928,17.712767 0.03839,0.504792 a 2.6119024,2.5016882 0 0 0 0.01888,0 l 0.121453,1.712518 0.134247,1.693325 0.134248,1.661315 0.121452,1.65498 0.134248,1.62299 0.14054,1.59111 0.121453,1.56558 a 2.6119024,2.5016882 0 0 0 0,0.0126 l 0.134247,1.53357 0.134248,1.50804 0.121452,1.47599 a 2.6119024,2.5016882 0 0 0 0.01888,0 l 0.115369,1.44415 0.14075,1.40572 a 2.6119024,2.5016882 0 0 0 0,0.0233 l 0.134248,1.37384 0.121452,1.32905 a 2.6119024,2.5016882 0 0 0 0,0.0233 l 0.134248,1.28442 a 2.6119024,2.5016882 0 0 0 0,0.0233 l 0.14054,1.25874 0.134253,1.21419 a 2.6119024,2.5016882 0 0 0 0,0.0126 l 0.12145,1.17578 a 2.6119024,2.5016882 0 0 0 0,0.0126 l 0.13425,1.1311 a 2.6119024,2.5016882 0 0 0 0,0.0126 l 0.13425,1.08647 a 2.6119024,2.5016882 0 0 0 0,0.0126 l 0.14054,1.04799 0.12145,0.99719 a 2.6119024,2.5016882 0 0 0 0.0126,0.0126 l 0.12145,0.93885 a 2.6119024,2.5016882 0 0 0 0,0.0371 l 0.13425,0.88182 a 2.6119024,2.5016882 0 0 0 0,0.0371 l 0.13424,0.83719 a 2.6119024,2.5016882 0 0 0 0,0.0371 l 0.14054,0.78011 a 2.6119024,2.5016882 0 0 0 0,0.0371 l 0.13425,0.73421 a 2.6119024,2.5016882 0 0 0 0,0.0371 l 0.13425,0.67718 a 2.6119024,2.5016882 0 0 0 0,0.0497 l 0.14054,0.62014 a 2.6119024,2.5016882 0 0 0 0.0126,0.0621 l 0.13425,0.56182 a 2.6119024,2.5016882 0 0 0 0.0189,0.0621 l 0.12145,0.50479 a 2.6119024,2.5016882 0 0 0 0.026,0.0743 l 0.12146,0.44776 a 2.6119024,2.5016882 0 0 0 0.0323,0.0992 l 0.13425,0.37703 a 2.6119024,2.5016882 0 0 0 0.0447,0.12775 l 0.14054,0.33238 a 2.6119024,2.5016882 0 0 0 0.0894,0.19215 l 0.13424,0.24307 a 2.6119024,2.5016882 0 0 0 0.15334,0.2741 l 0.13425,0.20472 a 2.6119024,2.5016882 0 0 0 0.34503,0.38943 l 0.12146,0.12774 a 2.6119024,2.5016882 0 0 0 0.69653,0.46634 l 0.14054,0.0621 a 2.6119024,2.5016882 0 0 0 1.16297,0.26181 h 0.13424 a 2.6119024,2.5016882 0 0 0 1.15021,-0.2741 l 0.12145,-0.0621 a 2.6119024,2.5016882 0 0 0 0.66453,-0.45392 l 0.12145,-0.11181 a 2.6119024,2.5016882 0 0 0 0.33227,-0.37702 l 0.13424,-0.17222 a 2.6119024,2.5016882 0 0 0 0.16614,-0.26178 l 0.12145,-0.24309 a 2.6119024,2.5016882 0 0 0 0.0894,-0.19215 l 0.14054,-0.28783 a 2.6119024,2.5016882 0 0 0 0.0571,-0.14012 l 0.12145,-0.351 a 2.6119024,2.5016882 0 0 0 0.0323,-0.0992 l 0.13425,-0.40308 a 2.6119024,2.5016882 0 0 0 0.0323,-0.0868 l 0.12145,-0.44772 a 2.6119024,2.5016882 0 0 0 0.026,-0.0743 l 0.12145,-0.51096 a 2.6119024,2.5016882 0 0 0 0.0189,-0.0621 l 0.13425,-0.56183 a 2.6119024,2.5016882 0 0 0 0,-0.0497 l 0.13425,-0.6065 a 2.6119024,2.5016882 0 0 0 0.0189,-0.0497 l 0.12145,-0.66478 a 2.6119024,2.5016882 0 0 0 0.0126,-0.0371 l 0.12146,-0.70942 a 2.6119024,2.5016882 0 0 0 0.0126,-0.0233 l 0.12145,-0.75408 a 2.6119024,2.5016882 0 0 0 0.0126,-0.0371 l 0.12145,-0.79253 a 2.6119024,2.5016882 0 0 0 0,-0.0371 l 0.14054,-0.83719 a 2.6119024,2.5016882 0 0 0 0,-0.0126 l 0.13425,-0.90164 a 2.6119024,2.5016882 0 0 0 0,-0.0126 l 0.13425,-0.94508 0.14075,-0.98353 a 2.6119024,2.5016882 0 0 0 0,-0.0126 l 0.12145,-1.01575 a 2.6119024,2.5016882 0 0 0 0,-0.0126 l 0.13425,-1.04178 a 2.6119024,2.5016882 0 0 0 0,-0.0126 l 0.13425,-1.08646 a 2.6119024,2.5016882 0 0 0 0,-0.0126 l 0.13424,-1.1311 a 2.6119024,2.5016882 0 0 0 0,-0.0126 l 0.12146,-1.16336 0.14054,-1.20179 a 2.6119024,2.5016882 0 0 0 0,-0.0126 l 0.13424,-1.23281 0.13425,-1.25874 a 2.6119024,2.5016882 0 0 0 0,-0.0126 l 0.12145,-1.29084 0.13425,-1.32905 0.14054,-1.34829 a 2.6119024,2.5016882 0 0 0 0,-0.0126 l 0.12145,-1.38015 0.13425,-1.39937 a 2.6119024,2.5016882 0 0 0 0,-0.0235 l 0.13425,-1.4186 a 2.6119024,2.5016882 0 0 0 0,-0.0126 l 0.14054,-1.45046 0.11537,-1.47601 a 2.6119024,2.5016882 0 0 0 0,-0.0126 l 0.14054,-1.4888 0.13425,-1.5208 0.12145,-1.552782 0.13425,-1.546345 a 2.6119024,2.5016882 0 0 0 0,-0.02349 l 0.14075,-1.559224 0.0954,-1.290729 h -5.23967 l -0.077,0.881819 -0.12145,1.578333 -0.13425,1.552658 -0.13425,1.53357 -0.12145,1.52079 -0.13425,1.48894 v 0.0235 l -0.14054,1.45692 -0.12145,1.45046 v 0.0126 l -0.13425,1.41858 -0.13425,1.40572 -0.12145,1.37383 -0.13424,1.34825 -0.14055,1.3163 -0.12145,1.29083 -0.13425,1.24595 v 0.0126 l -0.13424,1.22044 h 0.0126 l -0.13425,1.18193 -0.13424,1.16338 -0.12146,1.11125 v 0.0126 l -0.14054,1.07406 -0.13424,1.04179 v 0.0235 l -0.0323,0.21704 -0.026,-0.2618 v -0.0126 l -0.12145,-1.11868 -0.14054,-1.15717 v -0.0235 l -0.12145,-1.20179 -0.13425,-1.24026 v -0.0235 l -0.13425,-1.27151 v -0.0126 l -0.12145,-1.32274 -0.13425,-1.36104 v -0.0126 l -0.14075,-1.38657 -0.12145,-1.43773 v -0.0126 l -0.13425,-1.46338 -0.13425,-1.508 -0.12145,-1.52067 v -0.0126 l -0.13425,-1.54634 -0.14054,-1.59747 -0.12145,-1.61663 -0.13425,-1.635786 -0.13424,-1.667733 -0.12146,-1.680572 -0.13424,-1.706057 -0.0126,-0.147673 h -5.246088 z"
       id="polyline2649"
       inkscape:connector-curvature="0" /><g
       transform="matrix(0.20447569,0,0,0.20447569,-2.274995,-5.9835851)"
       id="g2651" /><g
       style="fill:#000000;fill-opacity:1;stroke:none"
       transform="matrix(0.08229604,0,0,0.08229604,76.908911,26.76807)"
       id="fet_innen"><path
         style="fill:#000000;fill-opacity:1;fill-rule:evenodd;stroke:none"
         d="m -634.28572,776.6479 148.57143,-420 c 0,0 41.42858,-94.28572 145.71429,-107.14286 H 101.42857 L 68.571429,345.21933 H -242.85714 c 0,0 -55.71428,8.57143 -81.42857,62.85714 l -20,55.71428 h 178.57142 L -200,560.93361 h -177.14286 l -77.14285,215.71429 z"
         id="path1938"
         sodipodi:nodetypes="ccccccccccccc"
         inkscape:connector-curvature="0" /><path
         style="fill:#000000;fill-opacity:1;fill-rule:evenodd;stroke:none"
         d="m 525.71429,776.6479 32.85714,-97.14286 H 250 c -52.85714,-10 -38.57143,-61.42857 -38.57143,-61.42857 l 20,-57.14286 H 410 l 34.28571,-97.14286 h -180 l 21.42858,-55.71428 c 0,0 18.57142,-47.14285 78.57142,-62.85714 l 314.28572,1.42857 33.27556,-97.56128 -437.56128,0.41842 c -101.42857,10 -148.57142,100 -148.57142,100 L 15.714286,660.93361 c 0,0 -31.428572,99.16317 67.142857,115.71429 z"
         id="path1942"
         sodipodi:nodetypes="ccccccccccccccccc"
         inkscape:connector-curvature="0" /><path
         style="fill:#000000;fill-opacity:1;fill-rule:evenodd;stroke:none"
         d="M 967.72614,776.59054 1120.2592,345.2554 h 189.9087 l 34.3451,-96.97464 H 872.7718 C 775.79716,262.4229 747.51288,345.2554 747.51288,345.2554 l 190.91883,1.01015 -151.52288,430.32499 z"
         id="path1944"
         sodipodi:nodetypes="ccccccccc"
         inkscape:connector-curvature="0" /></g><text
       xml:space="preserve"
       transform="scale(0.26458333)"
       id="text1"
       style="font-style:normal;font-variant:normal;font-weight:normal;font-stretch:normal;font-size:29.3333px;font-family:Bahnschrift;-inkscape-font-specification:Bahnschrift;text-align:start;writing-mode:lr-tb;direction:ltr;white-space:pre;shape-inside:url(#rect1);display:inline;fill:#000000;stroke-width:0.638" /><text
       xml:space="preserve"
       transform="scale(0.26458333)"
       id="text2"
       style="font-style:normal;font-variant:normal;font-weight:normal;font-stretch:normal;font-size:26.6667px;font-family:Bahnschrift;-inkscape-font-specification:Bahnschrift;text-align:start;writing-mode:lr-tb;direction:ltr;white-space:pre;shape-inside:url(#rect2);display:inline;fill:#000000;stroke-width:0.638"
       x="394.03696"
       y="0"
       inkscape:export-filename="text2.pdf"
       inkscape:export-xdpi="96"
       inkscape:export-ydpi="96"><tspan
         x="351.78542"
         y="548.60875"
         id="tspan3"><tspan
           style="text-align:center;text-anchor:middle"
           id="tspan1">Servus,
</tspan></tspan><tspan
         x="43.497275"
         y="581.94213"
         id="tspan5"><tspan
           style="text-align:center;text-anchor:middle"
           id="tspan4"> Sie sind auf der Uploadseite fr Unterlagen der Fachschaft </tspan></tspan><tspan
         x="59.708233"
         y="615.2755"
         id="tspan7"><tspan
           style="text-align:center;text-anchor:middle"
           id="tspan6">Elektrotechnik gelandet. Sie haben noch keine Unterlage </tspan></tspan><tspan
         x="64.968656"
         y="648.60888"
         id="tspan9"><tspan
           style="text-align:center;text-anchor:middle"
           id="tspan8">ausgewhlt, die Sie hochladen mchten. Um Unterlagen </tspan></tspan><tspan
         x="9.8904616"
         y="681.94225"
         id="tspan11"><tspan
           style="text-align:center;text-anchor:middle"
           id="tspan10">hochzuladen bettigen Sie bitte den Knopf &quot;Browse&quot; in der linken </tspan></tspan><tspan
         x="9.5974924"
         y="715.27563"
         id="tspan13"><tspan
           style="text-align:center;text-anchor:middle"
           id="tspan12">oberen Ecke des Bildschirms oder Ziehen Sie Unterlagen auf das </tspan></tspan><tspan
         x="13.132653"
         y="748.609"
         id="tspan15"><tspan
           style="text-align:center;text-anchor:middle"
           id="tspan14">Graue Feld, auf dem sich der besagte Knopf befindet, und lassen </tspan></tspan><tspan
         x="27.611838"
         y="781.94237"
         id="tspan17"><tspan
           style="text-align:center;text-anchor:middle"
           id="tspan16">sie diese dort fallen. Ist dies erledigt, kann der Knopf &quot;Upload&quot; </tspan></tspan><tspan
         x="38.542842"
         y="815.27575"
         id="tspan19"><tspan
           style="text-align:center;text-anchor:middle"
           id="tspan18">bettigt werden. Danach werden die Unterlagen, falls sie ein </tspan></tspan><tspan
         x="35.860546"
         y="848.60912"
         id="tspan21"><tspan
           style="text-align:center;text-anchor:middle"
           id="tspan20">untersttztes Format aufweisen statt dieser Seite angezeigt. </tspan></tspan><tspan
         x="46.140507"
         y="881.9425"
         id="tspan23"><tspan
           style="text-align:center;text-anchor:middle"
           id="tspan22">Zensieren Sie alle Namen, indem Sie Rechtecke ber diese </tspan></tspan><tspan
         x="9.8123365"
         y="915.27587"
         id="tspan25"><tspan
           style="text-align:center;text-anchor:middle"
           id="tspan24">Ziehen. Whlen Sie danach in der linken Bildschirmhlfte alle auf </tspan></tspan><tspan
         x="15.658698"
         y="948.60924"
         id="tspan27"><tspan
           style="text-align:center;text-anchor:middle"
           id="tspan26">die Unterlagen zutreffenden Parameter aus und drcken Sie auf </tspan></tspan><tspan
         x="23.523291"
         y="981.94262"
         id="tspan29"><tspan
           style="text-align:center;text-anchor:middle"
           id="tspan28">Senden. Danach wird die Fertige Unterlage in einem neuen Tab </tspan></tspan><tspan
         x="46.433476"
         y="1015.276"
         id="tspan31"><tspan
           style="text-align:center;text-anchor:middle"
           id="tspan30">geffnet. Tipp: Die Checkbox &quot;Zensieren&quot; ist standardmig </tspan></tspan><tspan
         x="39.929562"
         y="1048.6094"
         id="tspan33"><tspan
           style="text-align:center;text-anchor:middle"
           id="tspan32">ausgewhlt. Wenn in dem Dokument nichts zu zensieren ist, </tspan></tspan><tspan
         x="9.8579094"
         y="1081.9427"
         id="tspan35"><tspan
           style="text-align:center;text-anchor:middle"
           id="tspan34">knnen Sie diese abwhlen, das erlaubt, das Dokument eventuell </tspan></tspan><tspan
         x="192.09772"
         y="1115.2761"
         id="tspan37"><tspan
           style="text-align:center;text-anchor:middle"
           id="tspan36">in besserer Qualitt zu speichern.  </tspan></tspan></text></g></svg>
